<svg xmlns="http://www.w3.org/2000/svg" xmlns:xlink="http://www.w3.org/1999/xlink" width="1446.9" height="250.66" viewBox="0 0 1446.9 250.66">
  <defs>
    <filter id="Path_2" x="0" y="0" width="1446.9" height="250.66" filterUnits="userSpaceOnUse">
      <feOffset dx="1" dy="1" input="SourceAlpha"/>
      <feGaussianBlur result="blur"/>
      <feFlood flood-color="#a852ff"/>
      <feComposite operator="in" in2="blur"/>
      <feComposite in="SourceGraphic"/>
    </filter>
  </defs>
  <g transform="matrix(1, 0, 0, 1, 0, 0)" filter="url(#Path_2)">
    <path id="Path_2-2" data-name="Path 2" d="M-622.25-126.92q-.76.76-1.14.76h-.76a1.548,1.548,0,0,1,.38-1.14,30.958,30.958,0,0,1,2.66-4.37,30.964,30.964,0,0,0,2.66-4.37,45.164,45.164,0,0,0,3.42-13.68l-.76,3.04q-2.66,11.78-8.36,17.86-1.14,1.52-3.04.38-1.52-1.14,0-2.66,3.42-3.8,6.08-11.4a97.886,97.886,0,0,0,3.8-27.74,96.194,96.194,0,0,0-.38-9.88,101.551,101.551,0,0,0-2.28-16.72l-1.52-11.4a6.666,6.666,0,0,0-.76-1.9q-.76-1.9-2.09-4.75a74.5,74.5,0,0,0-3.61-6.65q-3.04-6.08-6.08-7.98v-.76a16.889,16.889,0,0,0,2.09,1.71,4.34,4.34,0,0,1,1.71,2.09l7.98,12.54a68.2,68.2,0,0,1,3.8,9.5l3.04,12.54.38-.38q-.38-1.9-1.14-7.03a66.263,66.263,0,0,1-.76-9.69l.76.76,1.14.76.38-1.14a20.672,20.672,0,0,0-1.9-6.84,60.886,60.886,0,0,0-3.23-5.7,60.9,60.9,0,0,1-3.23-5.7q-3.8-7.22-15.58-11.4-7.98-3.8-20.9-3.8-10.64-.76-16.34-.76l-22.04.38a25.177,25.177,0,0,0-5.32.38,28.68,28.68,0,0,1-5.32.38,45.193,45.193,0,0,1-6.84-.38h-.76q-3.42,0-3.42,3.42l.38,3.04-.38,23.18.38,14.44-.38,15.58v42.56l-.38,7.22.38,9.88V-87.4l.38,20.52v2.28q0,9.88-.38,14.82l-.38,11.02q0,3.8.19,9.12t-.19,12.54a29.993,29.993,0,0,0,2.28,12.54h-.19q-.19,0-.19.38l-1.52-.38.76,1.14a24.1,24.1,0,0,1,3.99,1.52,10.193,10.193,0,0,0,3.99,1.14,12.438,12.438,0,0,0,3.04-.76h.38a25.585,25.585,0,0,0,4.18-.38,4.766,4.766,0,0,1,3.42.38,22.639,22.639,0,0,1,4.94-.38A25.57,25.57,0,0,1-685.71,0l1.52-.76,5.32.76V-.38l-2.66-.38v-.76h2.66q4.56-.38,13.68-.38,5.7-.38,16.34-1.9,11.78-.76,19.76-5.7,13.68-7.98,18.24-19.76a85.374,85.374,0,0,0,6.08-26.6,21.358,21.358,0,0,1,.76-4.94v-.19q0-.19-.38-.19l-1.14,1.14v-3.42a61.412,61.412,0,0,1-.38-7.98V-77.9a42.855,42.855,0,0,0-.76-9.5q-.38-2.28-1.14-7.22a20.5,20.5,0,0,0-3.04-8.36q-.38-.76-.95-2.09t-.95-2.09l-5.7-9.12.76.38v-.38l-6.46-6.84v-.19q0-.19.38-.19l1.52,1.14,6.84,6.84a29.345,29.345,0,0,1,6.46,10.64,71.851,71.851,0,0,1,2.66,7.98l-.38-4.18a43.744,43.744,0,0,0-7.22-14.06,77.861,77.861,0,0,0-7.22-8.36,2.639,2.639,0,0,1-.76-2.66Zm0,19q.76.76,2.28,2.47a7.958,7.958,0,0,1,1.9,3.23,35.461,35.461,0,0,1,2.28,10.26q.38,3.42.76,8.55t.38,12.35q0,3.8-.76,12.16,0,.76.19,2.85a10.92,10.92,0,0,1-.19,3.61l-.76,3.04h-.38l-.38-1.14q.76-9.12.76-14.06,0-9.5-.76-28.5a25.887,25.887,0,0,0-3.8-11.78,14.894,14.894,0,0,1-1.52-3.42,21.747,21.747,0,0,1-4.18-3.8q-.38-.38-4.94-6.08l-.76.38h.76l8.74,8.74Q-622.25-109.06-622.25-107.92Zm-4.18-28.88q-.76.76-1.9,2.09a7.677,7.677,0,0,0-1.52,2.47q0,.76-1.14.76V-133q-.38.38,5.32-6.46.38-1.14,1.14-3.61t1.14-4.37q1.14-7.6,1.9-22.8a52.829,52.829,0,0,0-.19-9.88q-.57-5.7-.95-8.74-.76-9.88-1.52-15.2-.76-6.08-3.04-9.12l-2.28-3.42q.38,0,.38-.19v-.19q.76,1.14,1.71,2.47t1.71,2.47a30.756,30.756,0,0,1,2.47,9.5q.57,5.32.95,7.22a9.028,9.028,0,0,0,.38,2.47,9.028,9.028,0,0,1,.38,2.47h.38l-.38-4.18h.76a64.569,64.569,0,0,1,1.52,11.78h-.38a1.548,1.548,0,0,1-.38-1.14v9.5h.38v-5.7q.76,1.52.76,6.46a133.151,133.151,0,0,1-1.14,15.77q-1.14,9.31-2.28,12.35l.38-2.66h-.38l-1.14,4.56-2.28,4.18Zm9.88,106.4a58.029,58.029,0,0,0,4.18-14.06,38.822,38.822,0,0,0,1.52-11.4,34.434,34.434,0,0,0-.38-6.08q0-1.52.19-4.75a21.026,21.026,0,0,0-.19-5.13q-.76-15.96-1.52-24.32-.38-9.12-8.36-17.48l-5.32-5.7-.76-1.52a3.006,3.006,0,0,1,1.9.38,71.544,71.544,0,0,1,5.89,4.94,15.12,15.12,0,0,1,3.99,5.7q4.56,9.88,5.32,13.3a90.25,90.25,0,0,1,3.04,24.7l-.38,11.4q-.76,11.78-2.28,17.48-2.66,12.92-8.36,20.52-1.52,2.66-7.6,6.84-7.6,5.32-11.02,6.46a35.065,35.065,0,0,1-9.88,2.66q-4.56.76-12.92,1.52-13.68.76-20.14.76-.38.38-1.52-.38l1.52-.76a.774.774,0,0,1-.57-.19.774.774,0,0,0-.57-.19h.76a48.689,48.689,0,0,1,7.41-.19,48.69,48.69,0,0,0,7.41-.19q.76,0,6.46-1.14h6.46q4.94-1.52,6.46-1.9,11.4-1.9,18.62-7.98,5.7-4.56,7.6-8.36a51.769,51.769,0,0,1-9.12,9.12q-8.74,5.7-21.28,7.6a101.832,101.832,0,0,0-10.26.76l-10.64,1.14a26.046,26.046,0,0,1-5.32.19q-2.28-.19-3.8-.19h-1.14V-7.6h1.14q9.5-.38,19.19-1.14a115.5,115.5,0,0,0,17.67-2.66,44.651,44.651,0,0,0,20.52-12.54q4.18-4.94,6.84-14.44l3.8-12.92a60.032,60.032,0,0,1-2.28,12.73Q-616.17-31.92-616.55-30.4Zm-41.04-73.34q6.46-.38,11.78,4.75a14.893,14.893,0,0,1,4.94,11.97q0,22.42-.76,33.44a80.491,80.491,0,0,1-2.66,12.54l-1.14,1.14q-.76,0-.76.38-2.28,2.66-6.84,2.66a67.158,67.158,0,0,0-7.03.38,67.158,67.158,0,0,1-7.03.38l-12.92.76a1.679,1.679,0,0,1-1.9-1.9q.38-5.7.38-17.48v-46.74q-.38-2.28,2.28-2.28h21.66Zm-18.24-36.1a18.036,18.036,0,0,1-4.18.38,1.344,1.344,0,0,1-1.52-1.52v-32.68l-.38-20.52v-13.3a3.006,3.006,0,0,1,.38-1.9,3.006,3.006,0,0,1,1.9-.38q2.66,0,6.84.19t9.88.95a27.847,27.847,0,0,1,5.32,1.14q2.28.76,3.8,1.14,1.9,1.14,4.56,5.32a11.318,11.318,0,0,1,2.09,6.08q.19,3.42.19,4.56.38,3.04.76,7.22t.38,9.88q0,4.18-.76,11.78-.76,5.32-1.52,8.36a15.1,15.1,0,0,1-7.98,8.74Q-667.09-139.84-675.83-139.84Zm-19,104.5a32.01,32.01,0,0,1-.76-5.7q-.38-5.32-.38-16.34V-73.72l-.38-27.36a1.755,1.755,0,0,1,1.14-1.9q1.14,0,1.14,1.9a34.434,34.434,0,0,1,.38,6.08l-.38,40.28.38,15.2-.38,4.18Zm-2.66-106.02-.76.76q-.76,0-.76-.38a4.23,4.23,0,0,1-.38-1.9q0-8.36.38-12.54v-2.66q-.76-10.64-.76-16.34v-32.3a2.2,2.2,0,0,1,.38-1.52q0-.38,1.14-.38l.38.76v2.28l.38,24.7v39.52Zm2.28-68.02q1.9.38,1.9,3.04v15.96l-.38,10.26.38,6.84-.38,30.4v1.52l-1.14,1.52-1.14-1.52.38-2.28a45.726,45.726,0,0,0,.76-6.84l-.38-8.74v-50.16Zm-2.66,162.26a4.445,4.445,0,0,1-1.52-3.8l.38-28.5-.38-20.9v-1.14l.76-1.14q.76.76.76,1.14a37.548,37.548,0,0,1,.38,6.46l.38,29.64q-.38,5.7-.38,16.34Zm35.34,27.36q7.6-1.52,11.78-1.9a31.533,31.533,0,0,0,17.1-7.22,16.11,16.11,0,0,0,4.94-7.22q.76-3.04,2.28-8.74a59.481,59.481,0,0,0,1.9-10.26l.38-21.28a5.292,5.292,0,0,1,.38-2.28h.38l.38,2.66q0,4.94-.76,16.34a80.1,80.1,0,0,1-.38,9.12l-1.14,6.46a21.517,21.517,0,0,0-1.14,6.84,11.92,11.92,0,0,1-3.8,7.22,41.025,41.025,0,0,1-22.42,9.5,23.6,23.6,0,0,0-4.56.38q-1.9.38-3.42.76h-1.9Zm45.6-26.22a1.687,1.687,0,0,0,.19.76q.19.38-.19.38-2.28,10.64-4.94,15.2-6.84,12.54-21.66,15.58a205.534,205.534,0,0,1-24.32,3.42,53.741,53.741,0,0,1-10.64.76h-3.04v-.76l1.14-.38q10.26,0,32.3-3.04a43.588,43.588,0,0,0,19.76-8.74,27.444,27.444,0,0,0,7.22-10.64l3.42-11.78.38-.76Zm-68.02-56.62.38,1.9v45.6l.38,17.1-.38,1.9h-.76v-66.5Zm47.12-5.7q8.36,4.18,8.74,12.54a169.211,169.211,0,0,1,1.14,20.14q0,4.56-.76,13.68,0,1.52.19,3.99a16.111,16.111,0,0,1-.19,4.37,15.165,15.165,0,0,1-.57,3.99,13.289,13.289,0,0,0-.57,3.23h-.38v-1.52a44.173,44.173,0,0,0,1.14-10.64v-9.5q0-9.12-.76-26.6,0-7.22-4.94-11.02Zm18.24,54.34.38-25.08a102.947,102.947,0,0,0-.76-10.64v-2.66h.76a21.358,21.358,0,0,1,.76,4.94v33.06q0,.76-2.28,12.92-.76.76-.76,1.14h-.76l1.52-5.7Zm-64.6-86.26h-.38V-209h.76v13.68Zm-4.18-3.8v0Zm33.82,109.44q-18.24,2.28-25.46,3.04l-1.52-.76q1.14-1.14,1.52-1.14a80.291,80.291,0,0,1,8.74-.76l9.12-.76,6.08-.38h3.04v.38Zm26.6-164.16q.38,1.52.76,3.23a20.706,20.706,0,0,1,.38,4.37q.76,13.68.76,20.52v7.98l-.38,2.28-.76-.38q0-3.04.19-7.79t-.19-11.21l-1.14-19Zm14.06,104.5q-.76-4.56-1.52-7.6-.76-3.42-5.7-9.12l-6.84-6.84-1.14-1.52q3.04.76,7.98,6.84,8.74,9.88,8.74,21.28l-.38,3.8-.38.38Zm-41.8,67.26q-1.52,1.14-8.93,2.09a102.266,102.266,0,0,1-12.73.95q-3.8,0-4.18-.38Zm24.7-173.66a20.255,20.255,0,0,1,.38,4.56,66.946,66.946,0,0,1,1.52,9.5l.76,4.18v9.88h-.38l-2.66-28.12ZM-661.39-30.4a31.144,31.144,0,0,1-11.4,2.47q-6.08.19-7.98.19v-.38Zm-57.38-14.82q0,7.98.76,23.18h-.76Zm87.02-111.72q0,13.68-6.46,22.04a38.108,38.108,0,0,1,2.09-4.94,46.546,46.546,0,0,0,2.47-6.08,21.181,21.181,0,0,0,1.14-5.32Q-632.13-154.66-631.75-156.94ZM-634.79-190q.38,1.9,1.14,6.08a42.817,42.817,0,0,1,.76,7.6,22.636,22.636,0,0,1-.38,4.94Zm10.64,37.24a50.082,50.082,0,0,1-2.66,11.21q-1.9,5.13-4.56,6.65a27.726,27.726,0,0,0,4.18-7.6A105.357,105.357,0,0,0-624.15-152.76Zm-20.14-57.76a17.126,17.126,0,0,0-7.22-3.99,85.437,85.437,0,0,0-11.02-1.71,30.655,30.655,0,0,1,10.83,1.14Q-646.57-213.56-644.29-210.52ZM-687.61-43.7V-58.14h.76V-43.7Zm21.66,25.84,14.06-2.28v.76l-14.06,2.28Zm23.56-151.24-1.14-15.96h.76l.76,15.96Zm18.62,62.7q-5.32-4.94-9.12-9.12a18.955,18.955,0,0,1,5.32,4.94q2.66,3.42,3.42,4.56l-.38.38Zm-4.56-52.82a21.371,21.371,0,0,1-.76-6.46,22.637,22.637,0,0,1,.38-4.94h.76a10.331,10.331,0,0,1-.38,2.85,10.331,10.331,0,0,0-.38,2.85,40.387,40.387,0,0,0,1.14,5.32ZM-688.75-44.08v-4.56l-.38-4.56.38-4.56h.38v13.68Zm19.76-182.78,9.5.76-.38.76-9.12-.76Zm22.8,210.14a64.81,64.81,0,0,1-8.74,1.52l-.38-.76,8.74-1.14q.38,0,.38.19Zm17.48-23.56a12.5,12.5,0,0,1-.76-3.8,11.89,11.89,0,0,1,.38-3.23q.38-1.33.76-2.47Zm-3.8,12.92q-.38,1.14-2.85,2.66a8.33,8.33,0,0,1-3.99,1.52Zm9.12-135.66v-9.12h.38v9.12Zm-21.28,20.14a7.645,7.645,0,0,1-2.47,3.23,8.6,8.6,0,0,1-3.61,1.71Q-650.37-138.32-644.67-142.88Zm6.08-35.34a80.639,80.639,0,0,0-.76-9.12h.38l1.14,9.12Zm6.84,7.22v0Zm-4.94,121.98.76-8.36.76.38-1.14,7.98Zm3.04-112.48v-6.84h.76l-.38,6.84Zm3.42,121.98a8.058,8.058,0,0,1-1.9,5.32q2.28-7.22,1.9-6.84Zm-18.62,7.6q3.42-1.14,6.84-2.66Q-643.91-31.92-648.85-31.92Zm-15.58,17.1a45.607,45.607,0,0,0,6.46-.76v.38l-6.46,1.14Zm19-132.62q0,1.9-2.66,3.04l2.66-3.8Zm7.22,107.54a3.407,3.407,0,0,1-.57,1.71,3.407,3.407,0,0,0-.57,1.71h-.76l1.52-4.56Zm-42.56,21.66h3.42v.38h-3.42Zm58.9-107.92a61.162,61.162,0,0,0,5.32-5.7q4.94-9.12,4.94-15.96l.38-3.04a78.591,78.591,0,0,0,1.52-13.3,60.819,60.819,0,0,0,.19-8.17q-.19-3.61-.19-5.89a93.038,93.038,0,0,0-1.52-14.44q0-.38-.19-.38h-.57q.38,2.66.76,6.08a73.253,73.253,0,0,1,.38,7.98,34.434,34.434,0,0,1-.38,6.08,41.826,41.826,0,0,0-.38,6.46l.38,13.3h-.38l.38-4.94q-.76,3.04-1.52,7.6-1.14,10.64-5.32,17.48l-4.18,6.08ZM-674.69-.38a173.105,173.105,0,0,0,29.26-1.9l6.46-1.14a54.6,54.6,0,0,0,12.92-5.7,46.015,46.015,0,0,0,14.82-14.82,31.8,31.8,0,0,0,3.99-9.69q1.33-5.51,1.71-6.65l1.14-6.08q-2.66,8.74-3.04,10.64A41.789,41.789,0,0,1-627.95-8.74q-6.84,4.18-12.16,4.94l-14.06,2.28ZM-614.27-152a115.413,115.413,0,0,0,1.14-16.34,156.22,156.22,0,0,0-1.14-18.62q.76,11.4.76,17.48Q-613.51-164.16-614.27-152Zm7.98,63.46q.38,1.14,1.52,5.32h.38l-1.9-13.68Zm53.2,79.8a5.833,5.833,0,0,1,2.28.76l8.36,4.56a12.061,12.061,0,0,0,3.42.76,32.205,32.205,0,0,0,7.6,1.52,10.866,10.866,0,0,0,5.7,0l7.6-.76q9.88-.76,14.82-1.52a30.237,30.237,0,0,0,13.68-4.94q10.64-6.84,16.34-21.28a85.858,85.858,0,0,0,3.42-14.44q3.42-15.58,3.42-26.22V-99.56q.38-14.06.38-42.56,0-7.98.76-23.94a146.216,146.216,0,0,0-.76-26.6,143.536,143.536,0,0,0-3.8-15.58q-1.9-8.36-5.7-13.3-9.5-13.68-22.04-17.48l-1.9-1.14a2.7,2.7,0,0,1,2.28.38q19.38,6.46,27.36,27.74a153.5,153.5,0,0,1,4.18,17.1,60.721,60.721,0,0,1,1.9,16.72l-.38,9.88q-.76,19.76-.76,30.02,0,20.9.38,31.54v7.98a2.578,2.578,0,0,0,.76-1.9l.38-14.44-.38-26.98a26.635,26.635,0,0,0-.19-2.85,14.7,14.7,0,0,1,.19-3.99,53.67,53.67,0,0,1,.38-6.27,50.77,50.77,0,0,0,.38-5.89q.38-6.46.38-19-.76-9.88-1.52-15.58l-3.8-14.44q-.38-5.32-4.56-11.4a60.407,60.407,0,0,0-8.36-11.4,39.208,39.208,0,0,0-15.58-9.5,77.772,77.772,0,0,0-17.48-3.04,80.636,80.636,0,0,0-9.12-.76,32.008,32.008,0,0,0-5.7.76q-1.52.38-4.18.76a35.391,35.391,0,0,0-6.08,1.52q-1.52.38-6.08,1.71a38.785,38.785,0,0,0-7.98,3.23q-9.88,4.94-16.34,19.76a119.224,119.224,0,0,0-4.56,17.48,27.662,27.662,0,0,1-.38,3.23,9.08,9.08,0,0,1-1.9,4.37,1.44,1.44,0,0,0-.19,1.33,8.808,8.808,0,0,1,.19,1.71,2.2,2.2,0,0,1-.38,1.52q-1.9,2.28-1.9,7.6v1.9l.38,7.22q.38,4.94.38,15.2v78.66l.38,11.02q0,7.6.76,22.04a36.956,36.956,0,0,0,3.04,14.44,49.651,49.651,0,0,0,8.74,12.92,44.52,44.52,0,0,1,5.32,6.08,16.094,16.094,0,0,0,4.18,4.18l5.32,2.66a33.623,33.623,0,0,0,15.58,6.46q7.6.76,11.4.76a45.2,45.2,0,0,0,6.84-.38L-503.31,0q7.6-1.52,10.64-3.04,8.74-3.04,15.58-12.54,6.84-10.64,8.36-16.72l1.9-8.74q.38-2.66,1.52-10.07a89.377,89.377,0,0,0,1.14-13.49q.38-5.32.38-15.96V-96.14a2.2,2.2,0,0,1-.38-1.52h-.38l-.38.76v14.82q0,26.6-3.8,42.18-3.04,13.68-7.98,20.52a49.836,49.836,0,0,1-2.85,4.18,28.886,28.886,0,0,1-5.32,5.7,21.567,21.567,0,0,1-5.89,3.42l-.76.38a29.3,29.3,0,0,0-3.42,1.52,16.919,16.919,0,0,1-4.18,1.52A100.254,100.254,0,0,1-528.01.76Q-539.79.38-552.33-7.6l-1.14-.76Zm-1.14-78.28a12.5,12.5,0,0,1-.76-3.8,1.133,1.133,0,0,1-.19-1.14,1.133,1.133,0,0,0-.19-1.14v3.42h-.38l.38-7.6v-12.54l-.38-7.98.38-25.46-.38-15.2a81.647,81.647,0,0,1,.76-9.5l.38-1.52h.76v2.28q-.76,12.16-.76,18.24v61.94q.76,13.68.76,20.14h-.38a22.637,22.637,0,0,1-.38-4.94V-84.74A5.292,5.292,0,0,1-554.23-87.02Zm2.66,42.94a11.945,11.945,0,0,0-.19-1.9,6.6,6.6,0,0,1,.19-2.66,10.118,10.118,0,0,1,1.14-4.56l.38,7.22a6.628,6.628,0,0,1,.95,3.04,14.482,14.482,0,0,0,.57,3.04l3.42,4.56,3.04,3.04q5.7,4.18,7.6,4.94a17.914,17.914,0,0,0,7.98,1.52,31.478,31.478,0,0,0,5.7-.38l16.34-2.66a12.326,12.326,0,0,0,6.08-4.94,27.333,27.333,0,0,0,4.94-13.68q.38-3.42,1.14-8.17t1.14-11.21a89.83,89.83,0,0,0,.19-9.88q-.19-4.18-.19-6.84v-8.36a5.293,5.293,0,0,1,.38-2.28l.38,1.14v26.6a91.118,91.118,0,0,1-1.52,13.3,46.519,46.519,0,0,1-.76,7.22,34.851,34.851,0,0,1-1.52,6.46,24.223,24.223,0,0,0-.76,3.42,8.579,8.579,0,0,1-1.52,3.8,10.216,10.216,0,0,1-4.94,4.18,69.842,69.842,0,0,1-24.7,4.56q-7.98,0-12.16-3.04l-1.9-1.9-4.94-4.56a13.21,13.21,0,0,1-5.32-7.6l-1.52-2.28a2.859,2.859,0,0,1-1.71-2.28,20.163,20.163,0,0,1-.19-2.28h.38l1.52,4.56Zm49.02-155.42a48.441,48.441,0,0,1,4.18,17.1v17.48a1.548,1.548,0,0,0,.38-1.14q.38-4.18.38-11.78,0-7.98-1.14-11.78a138.6,138.6,0,0,0-4.56-16.34q0-.76-1.14-1.14a8.931,8.931,0,0,0-2.28-1.71,7.232,7.232,0,0,1-1.9-1.33l.38-.38q5.7,2.66,7.22,6.84l3.42,6.46,1.14,5.7a85.4,85.4,0,0,1,1.14,14.06l-.38,11.4q-.38,7.22-.19,12.54t.19,9.12v.76q0,.76,1.14,0v25.84a4.23,4.23,0,0,1-.38-1.9h-.38l-.38,7.22q-.76,15.96-.76,24.32v7.98q0,2.66.19,6.46a76.825,76.825,0,0,1-.19,9.12,62.834,62.834,0,0,1-.76,8.36l-1.14,8.74q-.38,4.56-3.8,10.64a13.292,13.292,0,0,1-9.88,5.7l-12.16,1.14-1.52.38v.38l8.74-.38a48.6,48.6,0,0,1-12.54,1.52,10.367,10.367,0,0,1-5.32-1.33,36.038,36.038,0,0,1-5.32-3.99,15.445,15.445,0,0,1-3.42-3.8q-2.28-1.9-3.8-7.6-1.14-5.7-1.14-17.1V-70.3q-.38-7.6-.38-23.18a4.23,4.23,0,0,1,.38-1.9h.38l1.14,6.08,2.28.38V-68.4h.38v-9.5a84.787,84.787,0,0,1,.38-9.5,42.6,42.6,0,0,0,.19-6.84q-.19-3.04-.19-4.94a96.194,96.194,0,0,1-.38-9.88l.76-22.8v-32.68q0-4.56,1.52-6.84l.38,3.04q-.38,9.88-.38,28.88-.38,6.84-.38,20.52l-.38,17.48a65.877,65.877,0,0,0,.76,11.78V-51.3q0,.38,1.14,8.36v.76a2.54,2.54,0,0,0,.38,3.42,10.815,10.815,0,0,0,1.9,2.28,6.622,6.622,0,0,0,3.42,1.9,61.7,61.7,0,0,0,7.6.76,22.638,22.638,0,0,0,4.94-.38l9.88-.76q5.32-.38,7.98-6.46,2.28-4.56,3.8-15.2,1.14-6.08,1.14-18.24v-9.12l.38-4.56-.38-3.04.38-18.24v-38.76q0-.76-.38-.76l-.38,5.32v37.24l-1.14,38.76q0,9.5-3.42,23.94l-.76.76,2.28-10.64q.76-5.7,1.52-18.62l.76-30.78v-36.86q-.76,7.6-.76,11.78,0,1.9.19,4.75a40.634,40.634,0,0,1-.19,6.65q0,8.36-.76,25.08v15.58q0,14.44-4.94,31.92-1.52,6.08-8.36,6.84a86.941,86.941,0,0,1-9.69.19q-3.99-.19-6.65-.19-3.04,0-5.32-3.8a24.441,24.441,0,0,1-1.52-7.22l-.76-37.62q0-12.54-.38-19l.38-7.98.38-22.8-.38-16.72q.76-12.92.76-19a30.871,30.871,0,0,0,.19-5.89,30.871,30.871,0,0,1,.19-5.89l1.14-11.78a15.826,15.826,0,0,1,3.04-6.84q.38-.38,2.66-3.8.76-.76,1.14-.76a64.017,64.017,0,0,1,11.4-1.52,21.518,21.518,0,0,1,6.84,1.14h.38q4.56.38,6.46,2.66t2.66,7.22a66.264,66.264,0,0,0,1.9,7.98l.76.76Zm29.64,119.32q0,9.88-.38,14.82,0,9.5-3.8,27.74-2.28,9.5-9.88,18.62-5.32,6.84-14.82,8.74-16.72,3.04-25.84,3.04a38.01,38.01,0,0,1-15.96-4.94,16.662,16.662,0,0,0-3.42-1.9q-3.42-1.9-8.74-7.98a82.9,82.9,0,0,1-7.98-10.64,21.642,21.642,0,0,1-2.28-6.08q-2.28-7.22-2.28-22.42a101.3,101.3,0,0,0-.38-10.26,31.134,31.134,0,0,1-.19-6.08q.19-3.42.19-4.94l-.38-10.64q0-29.26.38-44.08l-.38-14.82q.76-12.16.76-18.62l.76-.76v.76q0,16.34-.38,24.7l-.38,44.84q0,4.94.76,16.34v25.08l.76,14.44q1.14,11.78,8.36,19l7.22,7.98a34.364,34.364,0,0,0,4.56,3.04q1.9,1.14,5.32,3.04a35.459,35.459,0,0,0,5.7,2.66,27.623,27.623,0,0,0,7.98,1.14h5.32a120.342,120.342,0,0,0,23.56-3.8q6.08-1.52,11.02-7.6a42.492,42.492,0,0,0,10.26-22.8q2.28-12.16,3.04-18.24.38-7.22.38-22.04,0-10.64.38-15.96v-1.9h.76v20.52ZM-518.13-22.8q-4.56,2.28-6.46,2.28-6.46-1.14-7.22-1.14a58.6,58.6,0,0,1-6.84-3.04q.38,0,.38-.19v-.19a8,8,0,0,1,1.33.19,5.994,5.994,0,0,1,2.09.95,8.7,8.7,0,0,0,4.56,1.14h3.42a47.98,47.98,0,0,0,11.02-.57q6.08-.95,8.74-1.33a13.505,13.505,0,0,0,3.8-1.14,20.851,20.851,0,0,1,2.66-1.14,9.368,9.368,0,0,0,4.94-4.94q3.04-6.08,4.18-9.12l1.14-5.7,2.28-12.54a4.678,4.678,0,0,0,.19-2.28,6.6,6.6,0,0,1,.19-2.66,1.548,1.548,0,0,1,.38-1.14,1.548,1.548,0,0,0,.38-1.14,1.548,1.548,0,0,0,.38-1.14v-72.58l.76-19,1.14-16.34-.38-7.98h.38a2.2,2.2,0,0,1,.38,1.52,260.388,260.388,0,0,1-.76,27.36,45.827,45.827,0,0,0-.57,9.69q.19,5.51.19,7.79v42.94a12.5,12.5,0,0,1-.76,3.8,2.341,2.341,0,0,0,.38,1.33,2.341,2.341,0,0,1,.38,1.33l-.38,7.22q1.14,15.2-2.28,36.1a34.437,34.437,0,0,0-.38-6.08h-.38a5.816,5.816,0,0,0-.38,3.42,6.665,6.665,0,0,1,.76,1.9l-.76,3.04a22.614,22.614,0,0,1-2.09,6.27,55.555,55.555,0,0,0-2.47,5.89,9.624,9.624,0,0,1-7.22,4.56l-3.8.76a41.631,41.631,0,0,1-13.68,3.42Zm-56.62-147.82q-.38,5.7-.38,17.86-.38,14.82-.38,44.84,0,32.3.38,48.64a122.934,122.934,0,0,0,1.52,20.14,35.025,35.025,0,0,0,9.5,17.86,7.233,7.233,0,0,1,1.33,1.9,8.933,8.933,0,0,0,1.71,2.28l-.76.76-.38-1.52q-6.08-7.22-6.46-7.6a42.123,42.123,0,0,1-5.7-14.82,51.576,51.576,0,0,1-1.33-10.83q-.19-6.27-.19-9.31-.76-27.36-.76-41.04l.38-39.9a101.3,101.3,0,0,0-.38-10.26l-.38-9.88q0-.76,1.14-11.02h.76Zm14.82-.38q.38.38.38,12.16,0,18.62-.76,40.66t-1.14,23.56l-.38-4.18.38-30.4v-33.06l1.14-8.74Zm20.9,151.24a10.731,10.731,0,0,1-5.89-2.47,56.144,56.144,0,0,1-5.51-5.51,36.211,36.211,0,0,1-5.7-6.84q-.76-.76-2.28-4.94-1.52-4.56-1.52-13.68l-1.14-19.76v-9.88l-.38-8.74.38-2.28h.76l.76,7.22q0,1.9-.19,4.37a27.622,27.622,0,0,0,.19,5.51l.38,18.62.76,11.4a22.05,22.05,0,0,0,7.6,17.1,11.4,11.4,0,0,1,2.47,2.47,8.18,8.18,0,0,0,2.09,2.09,14.931,14.931,0,0,0,2.66,2.09q1.52.95,2.66,1.71Zm-13.68-101.08q0,30.4,1.14,61.18h-.76l-.38-10.64q0-10.26-.38-15.2-.38-6.84-.38-20.14,0-18.62.38-27.74l-.38-15.58.76-20.52.38-1.14Zm66.88,84.36a29.38,29.38,0,0,0-.76,2.85,4.992,4.992,0,0,1-1.14,2.47q-5.32,7.6-6.08,8.36a11,11,0,0,1-4.18,3.23,32.822,32.822,0,0,1-6.46,1.71q-6.84,1.14-11.97,1.52t-8.55.76q-1.9.76-1.9-.76l.57-.38a2.341,2.341,0,0,1,1.33-.38l2.28.38a19.716,19.716,0,0,0,4.37-.57q2.47-.57,3.99-.95,2.66-.38,5.7-.95t6.08-.95a17.379,17.379,0,0,0,12.54-9.5,33.32,33.32,0,0,1,3.8-6.84Zm-62.32-90.82q0-14.06.76-41.42h.76a39.536,39.536,0,0,1,0,7.79q-.38,4.75-.38,7.79v15.58q-.38,5.32-.38,15.96l-1.14,14.82Zm55.86-52.82a65.515,65.515,0,0,0-.38,8.36q-.76,13.3-2.28,19.76a9.885,9.885,0,0,1,.38-3.04,101.835,101.835,0,0,1,.76-10.26l.38-11.78a92.453,92.453,0,0,0-1.14-14.44,33.644,33.644,0,0,0-1.71-6.84q-1.33-3.8-2.09-6.08l-.38-1.14.38-.38,1.52,3.04a23.046,23.046,0,0,1,1.9,6.46l1.9,11.02a3.373,3.373,0,0,0,.38,1.52,2.917,2.917,0,0,1,.38,1.14,13.334,13.334,0,0,1,.38,3.8h-.38Zm18.62,40.28,1.14-25.84v-.76q0,2.28.19,5.13a40.634,40.634,0,0,1-.19,6.65,160.208,160.208,0,0,0-.76,18.24q.38,10.64.38,31.54a.861.861,0,0,1,.19.95l-.19.57h-.38v-3.04Zm-15.58,7.98q-.38-3.42-.38-10.64,0-8.36.38-14.82t.76-11.02l.76-9.12Zm-80.56,28.12.38,41.8h-.38l-1.14-41.8Zm29.26,55.86q-.76-8.74-.76-26.22V-91.58h.76Zm29.26-175.94q8.74,0,13.68,4.56,4.56,3.8,5.32,4.56.76.38,1.52,3.42a32.8,32.8,0,0,0-12.16-9.88,16.955,16.955,0,0,0-5.7-1.52q-3.42-.38-4.56-.38a14.7,14.7,0,0,0-3.99-.19,29.316,29.316,0,0,1-3.23.19l.38-.76Zm-58.14,60.8v14.82q0,9.88-.38,14.82h-.38v-29.64Zm79.8,70.68-.38-3.42.38-19,.76-12.16h.38l-.38,34.58Zm-19.76,54.72q-.76.76-1.14.76a86.723,86.723,0,0,1-20.9,1.9,9.027,9.027,0,0,1-4.18-1.52,15.76,15.76,0,0,1-3.42-4.18l3.8,3.42q2.28,1.52,7.6,1.52a60.721,60.721,0,0,0,16.72-1.9l1.52-.38Zm19.38-19.76a61.4,61.4,0,0,1,.38-7.98l.38-8.74-.38-8.36.38-8.36q.38.76.38,7.6,0,7.6-.38,14.82T-490.01-57.38Zm-80.56-49.78a82.294,82.294,0,0,1-.19-9.5q.19-4.18.19-6.84v-7.98h.76v24.32Zm76-8.74q0,12.54-.76,36.86a.336.336,0,0,1,.38.38V-115.9Zm-60.8,47.12a22.7,22.7,0,0,1,1.9,8.74,11.527,11.527,0,0,1-.38,3.42h-.76Q-554.61-60.42-555.37-68.78Zm30.78-141.74q.76-.76,5.32-.76,6.46,0,9.5,1.14ZM-536.75-18.24a1.686,1.686,0,0,0,.76-.19,1.349,1.349,0,0,1,1.14.19l4.56,1.52h.76l1.14.38a.609.609,0,0,0-.57.38l-.19.38-3.8-.76-4.18-1.14Zm-9.88-14.44a4.183,4.183,0,0,1-3.61-1.9,25.907,25.907,0,0,1-1.71-2.66,1.731,1.731,0,0,1-.19-1.33,3.126,3.126,0,0,0,.19-.95Zm-4.94-103.74V-155.8h.38v19.38Zm53.96,92.34,2.28-20.9h.38l-2.28,20.9Zm-43.32-89.68v0Zm71.82,27.74v17.86h-.38v-17.86Zm-6.46,66.5a23.433,23.433,0,0,1-3.42,11.4Zm3.42-129.2v0ZM-551.57-96.9q0,4.94.76,15.58h-.38l-.76-15.58Zm-13.3-31.54v0Zm76.38-76.76a71.852,71.852,0,0,0,2.66,7.98h-1.14a33.27,33.27,0,0,0-1.9-7.6q0-.38.19-.38Zm3.8,157.7a2.284,2.284,0,0,1,1.52-1.52,4.932,4.932,0,0,0-1.52,3.61v2.47a7.744,7.744,0,0,1-.57,2.66,7.281,7.281,0,0,0-.57,2.28Zm-60.8,17.86q.38,0,.38-.19v-.19l3.04,1.52a4.421,4.421,0,0,0,1.14.76q.76.38.38,1.9Zm-19-41.04-.76-10.64h.76Zm-.38-33.44v7.22h-.38v-7.22Zm96.52-55.86h-.38l.38-11.4ZM-557.27-30.4a7.418,7.418,0,0,1-2.85-3.04,13.876,13.876,0,0,1-1.71-4.18Zm1.9,19.76a.336.336,0,0,1-.38.38l-4.56-4.56.38-.38Zm70.68-211.28a.336.336,0,0,1,.38-.38q4.56,5.7,4.94,6.08l-.76.38Zm-76,39.52a80.291,80.291,0,0,0-.76,8.74h-.38l.76-8.74ZM-494.95-76v0Zm-7.6,42.94q0-.38-.76-.38l2.66-4.18.76.38Zm-11.4-182.02a28.681,28.681,0,0,0,5.32.38v.76l-5.32-.76ZM-564.11-52.06a61.7,61.7,0,0,1,.76,7.6h-.38Zm47.88-162.26a22.639,22.639,0,0,0-4.94-.38v-.76a26.051,26.051,0,0,0,4.94.38Zm-33.44,9.5-1.14,7.22h-.38l1.14-7.22Zm19-9.5a8.42,8.42,0,0,0,2.66-.38v.76l-2.66.76Zm-15.2,39.14a21.358,21.358,0,0,1,.76-4.94h.38l-.76,4.94Zm56.24,160.74,3.42-3.04h.38l-3.42,3.42Zm-7.6-120.08q0,3.42.19,8.74t-.19,12.54q-.76,27.36-.76,41.42a126.534,126.534,0,0,1-3.42,29.26l.19.19a.774.774,0,0,1,.19.57l1.9-5.7a3.069,3.069,0,0,0,.19-1.9,11.941,11.941,0,0,1-.19-1.9,96.054,96.054,0,0,0,2.28-20.9l.38-31.92v-35.72h-.76ZM-533.71-31.54a61.4,61.4,0,0,0,7.98.38,42.854,42.854,0,0,0,9.5-.76,50.629,50.629,0,0,0,8.36-1.52,6.787,6.787,0,0,0,4.18-3.8q-1.52.76-4.18,2.28a15.138,15.138,0,0,1-4.94,1.9q-4.56.76-15.2,1.52-7.98.38-13.68-6.84a14.346,14.346,0,0,1-2.09-4.75,17.724,17.724,0,0,0-.95-3.23q-.38-2.66-.76-5.13t-.76-5.13q0-1.9-1.14-1.14a1.548,1.548,0,0,0,.38,1.14,1.548,1.548,0,0,1,.38,1.14,24.8,24.8,0,0,1,.38,4.75,24.8,24.8,0,0,0,.38,4.75q.76,5.32,2.66,7.6a11.4,11.4,0,0,1,2.47,2.47,11.4,11.4,0,0,0,2.47,2.47l4.94,3.04h.19q.19,0,.19-.38Zm35.34-127.3v-.19q0-.19-.38-.19a61.7,61.7,0,0,1-.76,7.6h.38Zm224.2-76.76a11.528,11.528,0,0,1,.38-3.42q.38-1.9-1.14-2.28v1.71q0,.95-1.14,1.33l-.38-.76a4.47,4.47,0,0,0-4.56-3.42,8.152,8.152,0,0,1-2.09-.38,2.919,2.919,0,0,0-2.09,0q0,.38-1.14-.76a2.363,2.363,0,0,0-1.71-.76h-1.33q-1.14.38-3.42.95a4.3,4.3,0,0,1-3.42-.19,38.847,38.847,0,0,0-7.79,1.71,9.263,9.263,0,0,0-4.37,3.99l-.38-2.28a2.391,2.391,0,0,1-3.42.76,18.036,18.036,0,0,1,.38,4.18l-1.52.76v-1.9h-2.66l-.38,14.82v.76a6.123,6.123,0,0,1,.76,2.66l-1.52,13.3-.38,3.42-1.14,12.16q0,1.52.19,3.8a26.046,26.046,0,0,1-.19,5.32,57.454,57.454,0,0,1-.38,7.6,33.361,33.361,0,0,1-.76,4.94,80.108,80.108,0,0,1-.38,9.12l-.38,4.18v8.36a20.788,20.788,0,0,1-.76,4.56,61.4,61.4,0,0,1-.38,7.98q0,7.98-.38,12.16l-.76,11.4-.38,1.9h-.38a4.23,4.23,0,0,1-.38-1.9l-1.9-9.12a66.262,66.262,0,0,0-1.9-7.98l-2.28-12.16-4.56-21.28-4.18-20.14a8.421,8.421,0,0,0-.38-2.66,7.173,7.173,0,0,1-.38-2.28q-.38-1.14-.95-2.47a2.519,2.519,0,0,1-.19-2.09q0-.76-.38-.76l-.76-.76a1.548,1.548,0,0,1-.38-1.14l-1.14-5.32h.38l1.14,3.42a.336.336,0,0,1,.38-.38q-.76-2.28-1.52-5.32-.76-2.66-2.66-1.14-3.04.76-4.56,0a13.333,13.333,0,0,0-3.8-.38,8,8,0,0,0-1.33.19q-.95.19-1.33-1.33h-3.04a4.683,4.683,0,0,0-2.66.76,2.99,2.99,0,0,1-4.18-.38,2.448,2.448,0,0,0-1.9,0l-3.8,2.28q-2.66,1.52-1.9,3.8a1.548,1.548,0,0,1-.38,1.14,111.538,111.538,0,0,1-3.04,13.3q-1.52,10.64-2.66,15.96l-3.42,14.82-7.22,38q0,.38-.76,1.14h-.38V-114l-1.14-13.68-3.42-33.82-.76-8.36-1.52-16.72q-.76-6.84-.76-9.5l-.76-15.58a26.667,26.667,0,0,0-.76-7.6q-.38-1.14-.76-2.47a11.891,11.891,0,0,1-.38-3.23l-.38-7.22q0-1.14-.38-1.14a1.241,1.241,0,0,1-.95-1.52,11.655,11.655,0,0,0,.19-1.52,12.954,12.954,0,0,0-1.9-4.56l.76,4.94h-.38l-3.04-5.32a.336.336,0,0,1-.38.38,12.139,12.139,0,0,1,.76,2.85,4.974,4.974,0,0,0,1.9,3.23,2.6,2.6,0,0,1,.38,3.04,3.628,3.628,0,0,0-.76,3.8q1.52,16.72,2.66,25.08l2.66,33.06.38,2.28h.38V-171q-1.52-12.16-1.9-18.24l-1.14-14.06-1.52-12.92q-.76-7.6-.76-10.64-.76-2.66,1.52-3.04l1.52,6.84q.76,12.16,1.52,19l3.42,42.18q.76,9.5,3.04,28.5l2.28,22.04v3.8h-.76l-2.28-20.14q-.38-4.18-1.52-13.87t-1.52-17.67a1.49,1.49,0,0,0-1.14,1.52,16.348,16.348,0,0,0,.38,3.04v-2.66l.76,6.84h-.38v-1.14a5.292,5.292,0,0,0-.38,2.28l1.9,16.72a78.342,78.342,0,0,0,1.9,12.54,47.031,47.031,0,0,1,1.52,12.16,34.437,34.437,0,0,1-.38,6.08,32.694,32.694,0,0,1-.76-6.08l.38,8.36a21.517,21.517,0,0,1-1.14,6.84l-.38-1.14a62.838,62.838,0,0,0-.76-8.36l-3.42-31.54-5.32-47.5-1.14-11.02q0-1.9-.19-5.13a62.535,62.535,0,0,0-.95-7.41q-2.28-19.76-2.28-28.88-.38-2.28,1.52-2.28a19.113,19.113,0,0,0-.76-2.85,5.767,5.767,0,0,0-3.04-3.61,15.88,15.88,0,0,0,.76,2.66l-2.28-1.52-1.52-.76q-1.52-2.28-2.66-1.52l-1.9,2.66q0-.76-1.14-.76a25.177,25.177,0,0,0-5.32.38,8.557,8.557,0,0,0-1.71.38,3.634,3.634,0,0,0-2.09,1.52h-.57a1.289,1.289,0,0,1-.95-.38,22.641,22.641,0,0,1-3.04-2.28l-1.9,6.84q-.76-4.18-1.14-4.56a1.65,1.65,0,0,0-2.28-.95,8.14,8.14,0,0,1-1.9.57,11.108,11.108,0,0,0,1.14.95q.76.57.76.95a7.5,7.5,0,0,1,.19,3.04q-.19,1.9-.19,3.04h-.38l-.76-2.28V-228a7.173,7.173,0,0,0,.38,2.28,7.173,7.173,0,0,1,.38,2.28,53.141,53.141,0,0,1,.95,6.46q.19,2.66.19,4.56,2.28,12.92,3.04,21.28l3.04,21.28,1.14,4.56q0,1.9.19,4.75a52.225,52.225,0,0,0,.95,6.65l4.56,30.02.76,9.88,2.28,12.92,4.18,31.92,2.28,20.9q.76,10.26,3.04,26.98.76,9.12,1.52,13.68l.76,2.28a9.885,9.885,0,0,1,.38,3.04,2.578,2.578,0,0,0,.76,1.9,2.578,2.578,0,0,0,1.9.76l.95.95q.57.57.95.19l2.28-.38a4.645,4.645,0,0,1,3.42,1.14q4.18-.76,11.78-1.52a2.983,2.983,0,0,1,2.85-1.33q1.71.19,2.47.19a68.486,68.486,0,0,1,1.52-7.22l1.14,1.9a14.744,14.744,0,0,0,.76-1.9,8.421,8.421,0,0,0,.38-2.66l2.28-9.5,3.8-17.86q1.14-4.18,2.66-13.3a14.744,14.744,0,0,0,.76-1.9,8.421,8.421,0,0,0,.38-2.66q1.9-8.36,3.8-21.28l3.04-14.06a157.186,157.186,0,0,0,3.04-16.34q1.14-4.18,2.66-12.54l.38-1.14h.38a66.262,66.262,0,0,1,1.9,7.98l3.42,15.96,2.28,9.88.76,3.42,2.28,9.12q1.52,6.08,3.8,18.24l5.32,23.94,6.46,31.54q.38,1.52.76,1.71a3.7,3.7,0,0,0,1.9-.19,2.448,2.448,0,0,1,1.9,0,1.615,1.615,0,0,0,1.52,0,1.217,1.217,0,0,0,.76-1.14l1.9.38q.76,0,2.85-.19a10.92,10.92,0,0,1,3.61.19l1.14-.38a7.9,7.9,0,0,1,3.04.38q1.14,1.52,1.9-.38l1.52-1.52a16.662,16.662,0,0,1,1.9,3.42V.76q0-1.9,2.28-1.9a10.813,10.813,0,0,1,2.28,1.9l1.52-9.5q2.28-12.92,3.04-21.28a94.658,94.658,0,0,1,2.28-16.72v-2.28a34.437,34.437,0,0,1,.38-6.08,27.693,27.693,0,0,1,.38-4.56,25.585,25.585,0,0,0,.38-4.18l1.14-9.12q.38-2.66.95-7.41a36.211,36.211,0,0,0,.19-8.17l.38-.76,1.14-6.46a142.949,142.949,0,0,0,1.9-14.44l1.9-17.86.76-7.6,1.52-11.4.76-11.78a46.522,46.522,0,0,1,.76-7.22l1.14-8.36a13.334,13.334,0,0,0,.38-3.8,77.532,77.532,0,0,0,1.9-11.02,34.437,34.437,0,0,1,.38-6.08l1.14-10.64q.38-2.66.57-6.84a23.668,23.668,0,0,1,1.33-7.22v-.38l.38-12.92A5.833,5.833,0,0,1-274.17-235.6Zm-58.14,122.36a1.548,1.548,0,0,1-.38-1.14h.38a23.553,23.553,0,0,0,1.52,4.56l-.76.38a2.578,2.578,0,0,0-.76-1.9l1.14,5.7,2.28,13.3,3.42,15.2h-.38q-.38-1.9-1.71-6.65a32.053,32.053,0,0,1-1.33-8.55l-1.14-4.18-4.94-22.04a20.257,20.257,0,0,0-.38-4.56l-1.52-6.08-2.28-10.26h-.38q1.52,8.36,2.66,12.54l5.7,28.88,5.7,25.46a11.527,11.527,0,0,1,.38,3.42h-.76l-2.28-10.26q-1.14-4.56-3.8-17.48a8.387,8.387,0,0,1-2.28-5.13,26.04,26.04,0,0,0-.76-4.37q-1.52-4.94-2.28-8.74t-1.14-6.08l-4.56-22.04L-347.89-171v-.76h.38l3.04,12.54h.38l-3.42-15.58h.76l6.84,33.06h.38l-3.8-20.52h.38q1.52,8.36,2.66,12.54l3.42,18.24a50.629,50.629,0,0,1,1.52,8.36l1.14,1.52a5.293,5.293,0,0,1-.38-2.28h.38l1.14,4.94h-.19q-.19,0-.19.38l-.76-1.52A50.077,50.077,0,0,0-332.31-113.24Zm-.38-20.14q2.66,12.16,4.18,20.14,1.14,3.8,2.66,11.4a5.293,5.293,0,0,1-.38,2.28q-.76-3.8-1.52-4.56-.38-1.52-.76-3.8a22.863,22.863,0,0,1-.38-3.42,20.679,20.679,0,0,0-1.33-4.56,22.451,22.451,0,0,1-1.33-4.18,6.522,6.522,0,0,1-.38-2.66,20.951,20.951,0,0,0-.76-4.18,8.421,8.421,0,0,0-.38-2.66q0-1.14-.19-3.61a10.857,10.857,0,0,0-.95-3.99,16.143,16.143,0,0,1-1.9-6.46,42.845,42.845,0,0,0-.76-5.32q-1.14-4.56-2.66-16.34v-1.14l-1.9-7.98h.76l1.14,7.98,1.14,3.8Zm-52.82,59.66a45.722,45.722,0,0,0-.76,6.84,1.548,1.548,0,0,0-1.14-.38l1.9-6.46,2.28-10.64q4.94-19.38,7.6-34.58.76-5.7,3.04-16.34a2.19,2.19,0,0,1,.76-1.52q-1.9,9.5-4.94,28.5h.38q2.28-11.4,3.04-15.58h.38v2.28q-.38,3.04-1.14,7.6t-2.28,10.64l-3.8,16.72q-1.52,6.84-3.8,20.52-.38,3.42-1.9,10.26l-.38.76h-.38q.38-3.8,1.9-11.4h-.38q-.38,1.14-1.52,4.94h-.38V-62.7a64.65,64.65,0,0,0,1.52-7.98Zm-25.84-117.04-1.52-15.2h-.38l2.28,23.18.76-1.9a6.155,6.155,0,0,1,1.14,3.8,20.951,20.951,0,0,1-.76,4.18l-.76-1.9h-.38a23.553,23.553,0,0,0,1.52,4.56l1.52,6.08,1.14,12.92q.76,9.88,1.52,14.82a74.206,74.206,0,0,0,1.14,8.36q.76,3.8,1.14,6.84l3.04,28.12q.76,5.32,1.52,15.2a4.23,4.23,0,0,0,.38,1.9h-.76v-2.66h-.38a45.194,45.194,0,0,0,.38,6.84h-.76l-.38-1.52-4.56-42.94q-.38-3.04-1.14-7.22a88.988,88.988,0,0,1-1.14-9.5q-3.04-25.08-4.18-37.62-1.52-11.4-3.8-34.96-1.52-12.54-1.9-19.76l.38-3.04a13.333,13.333,0,0,0,.38-3.8,3.126,3.126,0,0,1,.19-.95q.19-.57,1.33-.95h1.71q1.33,0,1.33,1.9a20.256,20.256,0,0,0-.38,4.56,55.554,55.554,0,0,0,.38,6.84q.38,3.04.76,5.32l3.42,33.82q3.42,31.92,4.94,45.22l2.66,22.04q1.14,8.36,2.66,25.08l.38,5.32h-.38l-.38-.76-2.66-24.32a3.467,3.467,0,0,1-.19-1.9,5.2,5.2,0,0,0,.19-1.14q0-1.14-.19-3.99a13.337,13.337,0,0,0-1.33-5.13,9.437,9.437,0,0,1-.38-3.42l-1.14-5.32a8,8,0,0,0-.19-1.33,2.59,2.59,0,0,1,.19-1.71q.76-.76,0-3.04-.38-2.66-.95-5.13t-.95-5.13q-1.14-8.36-2.66-23.18-.38-4.94-1.9-16.72l-1.14-11.78a12.438,12.438,0,0,1-.76-3.04l.76,13.68Zm119.7-15.2-4.18,41.8-4.94,44.46-3.8,39.14a6.175,6.175,0,0,0,0,3.04,20.951,20.951,0,0,1,.76-4.18,4.4,4.4,0,0,1,.76,3.04,6.193,6.193,0,0,1-1.52,4.56l-.38.76q-.76,5.7-1.52,15.58,1.9-.38,1.9,1.9l-1.14,13.68-1.14,12.16v1.52h.38q3.04-28.12,4.18-42.56h.76l-4.56,48.26q-1.52-6.46-1.9-8.74a8.421,8.421,0,0,1,.38-2.66,8.421,8.421,0,0,0,.38-2.66l1.9-16.72-.38-1.52h-.76l-1.52,18.24-.38,1.52-.76-1.14-1.52-7.6V-45.6a5.558,5.558,0,0,1,1.14-3.42,14.094,14.094,0,0,0,.57-2.85,7.866,7.866,0,0,1,.57-2.47l1.14-14.44,4.56-47.88q.76-6.84,3.04-23.56l2.28-24.32,4.94-47.5,1.9-19.76,1.14-7.98h.38v5.7ZM-381.71-52.44l-2.28,10.26h-.76l-.76-6.84a39.417,39.417,0,0,1,1.14-11.78q1.52-6.46,1.9-9.5a26.642,26.642,0,0,1,.19-2.85,19.823,19.823,0,0,1,.95-3.99l2.66-13.3q1.14-3.8,2.66-11.4l4.56-25.46,3.42-18.24a64.638,64.638,0,0,1,1.52-7.98,6.123,6.123,0,0,1,.76-2.66q.38,1.14.95,3.04a7.747,7.747,0,0,1,.19,3.8q-2.28,11.02-6.08,33.06l-9.12,43.32q-1.52,6.46-2.28,11.4t-1.14,7.98l-1.14,5.7v2.28h.38l1.9-6.84Zm-26.6-66.88q-2.28-13.68-3.04-19-2.28-22.04-3.8-31.16l-6.08-52.06-1.14-6.84.38-4.56h.76a6.123,6.123,0,0,1,.76,2.66q.38,3.42.76,8.55t1.52,11.97l1.14,10.26,1.9,21.28,1.52,10.64q1.52,15.58,2.66,24.7.76,8.36,3.04,22.04a46.519,46.519,0,0,1,.76,7.22h-.76Zm82.08,66.5q-1.9-3.8-12.73-56.43t-10.07-54.15l11.4,55.1q1.9,9.88,5.51,26.6T-326.23-52.82Zm-53.2-84.36-1.9,10.26q-2.28,13.68-3.8,20.52l-3.8,17.1-.38.76h-.76a9.885,9.885,0,0,0,.38-3.04l3.8-17.48,7.98-41.8q1.52-8.36,4.18-20.9l2.28-8.36h.38l-.38,1.52Zm11.02-32.3q-2.28,10.64-6.08,31.92-7.98,43.7-13.3,63.84v-1.9l3.42-17.48q2.66-12.16,7.22-36.48l5.32-26.6,2.66-12.54.38-.76Zm56.24,114q-1.14-3.04,3.04-46.55t5.7-45.41l-.76,7.6q-1.52,14.06-3.61,35.15T-312.17-55.48Zm-73.72-68.78q7.6-43.32,13.3-64.6v1.52q-2.28,7.98-4.94,20.9l-1.14,6.46-2.66,12.92-7.6,42.56a24.583,24.583,0,0,1-1.14,4.37,27.5,27.5,0,0,0-1.14,3.99Zm66.12,29.64q-.38-1.52,2.28-30.59t3.42-30.59Zm-62.32-44.46q.76-4.56,3.23-18.05t5.51-24.51h.76q-7.6,35.72-9.88,47.12l-1.9,9.5Zm22.04,6.08q-4.94,33.06-10.64,53.58Q-363.85-115.14-360.05-133Zm69.54-8.36q3.8-34.2,6.08-51.68h.38l-1.52,14.44q-2.28,25.08-4.56,37.62Zm-9.5,73.34-4.18,43.7a1.548,1.548,0,0,0-1.14-.38l4.56-43.32Zm-90.44-27.36,5.32-26.22h.38L-389.69-95Zm40.66-61.94q.76,5.7,4.18,21.28h-.76l-4.18-20.9Zm1.52,19.76q-2.28-9.88-3.04-14.44l.76-.38a106.323,106.323,0,0,0,3.04,14.44Q-348.27-137.94-348.27-137.56Zm5.7,19.76q-2.28-10.64-3.04-15.96h.38q.76,5.32,3.04,15.96Zm15.2,70.68q-.76-4.94-3.04-15.58h.38l3.42,15.58Zm-60.8,11.4a5.292,5.292,0,0,1,.38,2.28,11.891,11.891,0,0,1-.38,3.23,10.333,10.333,0,0,0-.38,2.85h-.76Zm7.98-9.5a59.422,59.422,0,0,1-1.9,8.36h-.38l1.9-8.36Zm101.08-168.72.38-4.18h.76l-.76,4.18ZM-384.75-26.6a12.062,12.062,0,0,0,.76-3.42h.76l-.76,3.8Zm-21.28-183.92q-.76-9.12-.76-13.68l-.38.38q0,4.18.76,13.3Zm-1.14-23.94a5.4,5.4,0,0,0-.76,3.04,20.787,20.787,0,0,0,.76,4.56Zm132.62,4.94q.38,0,.38.19v.19a32.022,32.022,0,0,0,.76-5.32q0-.38-.76-1.14Zm-138.7,8.36v3.8a45.725,45.725,0,0,1,.76,6.84V-209a9.458,9.458,0,0,0,1.14,4.18l-1.14-16.34Zm36.1,115.9h-.38l-1.14,7.98h.38Zm210.14-3.04q-1.52-1.52,0-3.8a5.936,5.936,0,0,0,.76-4.94,20.255,20.255,0,0,1-.38-4.56,45.193,45.193,0,0,1,.38-6.84,3.722,3.722,0,0,0-.76-3.42,4.39,4.39,0,0,1-.76-4.18,2.2,2.2,0,0,0,.38-1.52,2.694,2.694,0,0,0-1.9-2.66,1.686,1.686,0,0,1,.19-.76q.19-.38-.19-.38a8.8,8.8,0,0,0-1.9-1.14,5.179,5.179,0,0,0-3.42-.38q-7.6.76-11.78.76h-12.54a101.306,101.306,0,0,1-10.26-.38,3.006,3.006,0,0,1-1.9-.38,3.006,3.006,0,0,1-.38-1.9l.76-4.94v-10.64l-.38-10.64v-32.3q0-1.9,2.28-1.9l4.18-.38h15.96l.76.38-1.52.38.76.38q2.66,0,6.84-.19a89.834,89.834,0,0,1,9.88.19q7.22,0,21.66.76,1.9,0,1.9-1.52a1.679,1.679,0,0,0-1.9-1.9,96.2,96.2,0,0,1-9.88-.38h-22.04l-25.84.38a3.373,3.373,0,0,1-1.52-.38,2.916,2.916,0,0,0-1.14-.38q.38-1.14,1.14-.95a5.2,5.2,0,0,0,1.14.19q16.72-.38,49.4-.38a65.515,65.515,0,0,1,8.36.38q3.04,0,4.18-1.14l1.14-1.52-1.9-.76a9.885,9.885,0,0,1-3.04-.38l.76-1.52,3.04-2.28a4.016,4.016,0,0,0,1.14-5.32,1.686,1.686,0,0,0-.19-.76.621.621,0,0,1,.19-.76l.76-1.9a6.745,6.745,0,0,0-.76-3.04,2.7,2.7,0,0,1-.38-2.28l-.76-.38a1.679,1.679,0,0,1-.38-2.66,6.934,6.934,0,0,0,.38-3.8l-1.14,1.52a1.133,1.133,0,0,1-1.14.19q-.76-.19-.38-.95a8.69,8.69,0,0,1,2.66-2.28l-2.66-.76-2.28-1.52-1.52-.76h-3.8a15.293,15.293,0,0,0-4.18-.38,80.1,80.1,0,0,0-9.12.38h-5.7v.38a75.578,75.578,0,0,1,8.74.38q-.38,0-.38.19v.19h-28.12v-.38l.76-.38h-36.48a26.638,26.638,0,0,0-2.85.19,6.743,6.743,0,0,1-2.85-.19,15.881,15.881,0,0,0-2.66-.76,9.885,9.885,0,0,0-3.04.38l-2.28.76,2.28,3.8a.336.336,0,0,0-.38.38l-2.66-1.14a6.124,6.124,0,0,0-2.66.76v3.42l-.38,5.7v29.26a17.613,17.613,0,0,0,.38,3.42,19.332,19.332,0,0,1,.38,3.8l-.38,12.92-.38,17.48v31.16l.38,9.88q0,3.04-.19,7.22a89.835,89.835,0,0,0,.19,9.88v24.32a50.22,50.22,0,0,1,.19,7.41q-.19,3.23-.19,5.51l.38,17.1v14.82l-.38,8.36.38,9.5v4.56l.38,2.66q.76-.38,1.33.76t.95,1.14l-1.14,1.14h1.52l3.8,3.8a1.548,1.548,0,0,0-1.14.38v.19q0,.19-.38.19a9.885,9.885,0,0,0,3.04.38,3.467,3.467,0,0,0,1.9.19,5.2,5.2,0,0,1,1.14-.19q3.42.38,11.02.38a103.851,103.851,0,0,0,10.64.19q4.56-.19,7.22-.19h22.04l27.74.76,10.26.38a2.233,2.233,0,0,0,1.9-1.14,1.893,1.893,0,0,0,.38-1.9,13.291,13.291,0,0,1-1.14-3.8q-.38-1.52-.76-4.18a35.078,35.078,0,0,1-.38-4.94l.76-1.9q.76-1.9.38-2.28a9.223,9.223,0,0,0-3.04-2.28h-.76l-3.04.38v-.76q0-3.04,2.28-1.52.38.38,1.71-.19t1.33-1.33a15.88,15.88,0,0,0,.76-2.66q0-.76-2.28-2.28l-1.52-1.14v-.38h1.14l-1.14-1.52q3.04.76,3.42-1.52l-2.66-2.28-.76-.76q-3.42-1.52-5.32.38a.774.774,0,0,0-.57.19q-.19.19-.57-.19h-4.18q-1.9-.38-5.13-.76a68.02,68.02,0,0,0-7.79-.38q-16.72.76-25.08,1.52l-9.12.38q-1.52.38-1.52-1.14-.76-14.44-.76-20.9-.38-6.84-.19-11.78t.19-8.36q0-16.34-.38-24.7a1.679,1.679,0,0,1,1.9-1.9,53.669,53.669,0,0,0,7.22.38,58.633,58.633,0,0,1,6.46.38,58.633,58.633,0,0,0,6.46.38q1.9,0,5.7-.38t6.46-.76Q-176.89-105.26-167.01-108.3Zm-36.48,76.76q5.32,0,15.96-.76a4.645,4.645,0,0,1,3.42,1.14,1.133,1.133,0,0,0,1.14.19,5.2,5.2,0,0,1,1.14-.19v-.38l-.76-.38,11.4-.76v-.38l-38.38,1.14v-.38l1.52-.38,19.76-1.14a7.12,7.12,0,0,0,3.8-.76h-1.14l-14.44-.38a14.127,14.127,0,0,0-3.42.38,14.128,14.128,0,0,1-3.42.38l-1.9.38-.76-.76.38-.76a11.528,11.528,0,0,1,3.42-.38l34.2-1.52a79.914,79.914,0,0,1,8.55.57l8.55.95a2.19,2.19,0,0,1,1.52.76,10.278,10.278,0,0,1-5.32.95q-3.04-.19-4.94-.19l11.4,1.14v.76a116.261,116.261,0,0,1-15.58.38l12.54,1.9v.38a5.292,5.292,0,0,1-2.28.38,13.6,13.6,0,0,1-2.85-.38,6.953,6.953,0,0,0-3.23,0l6.46,1.14-12.16-.38q-14.06,0-40.66,1.52l-.38-3.42Zm-20.52,28.5q9.5,0,14.06-1.14a9.885,9.885,0,0,1,3.04-.38q6.08,0,17.48-.76l6.08.38h14.82a84.952,84.952,0,0,1,9.12,1.9l3.04.38q.38,0,1.9.19t1.9-2.09q0-.38,1.9-1.14a22.849,22.849,0,0,0,.76,3.8l-8.36.38q-4.56-.38-13.68-.38-10.26,0-30.78.76-18.62.76-29.64-1.9h8.36Zm66.5-22.42q-19.76-.76-30.02-.76v.38h15.2a23.933,23.933,0,0,1,7.6,1.14q-29.64.76-44.46.76v-.38l1.52-.76,12.16-.38h1.52v-.38l-15.2.38-.38-.38a5.833,5.833,0,0,1,2.28-.76l11.78-.76q12.16,0,18.24-.38a109.877,109.877,0,0,1,18.62,1.14l1.52.76Zm4.56-199.88a7.216,7.216,0,0,1-3.8.38l-15.2-.38-26.98.38h-9.5a3.006,3.006,0,0,1-1.9-.38,32.736,32.736,0,0,1,5.32-.38h4.18a96.2,96.2,0,0,0,9.88-.38h9.88v-.38h-29.64v-.76h48.26Q-155.99-227.24-152.95-225.34Zm-25.84,4.56a30.5,30.5,0,0,1,6.84,0q4.18.38,6.84.38a46.521,46.521,0,0,0,7.22-.76l1.14,1.52h-53.58v-1.14l5.7-.38a6.665,6.665,0,0,0-1.9-.76q15.96-.76,23.18-.76,7.6,0,22.8.76v.76l-39.9-.76v1.14Zm-41.04,66.5q0-3.42-.19-8.36t.19-11.4q0-8.74-.76-27.74-.76-.76,0-1.9,0-1.14,1.52-1.14a1.49,1.49,0,0,1,1.52,1.14v4.18q0,1.9.19,4.75a40.636,40.636,0,0,1-.19,6.65l-1.52-11.78q.38,7.98.38,23.94,0,21.66-.38,32.68h-.38l-.38-.76Zm39.52,140.6q3.42,0,4.94-1.14a3.006,3.006,0,0,1,1.9-.38,65.514,65.514,0,0,1,8.36.38,41.82,41.82,0,0,1,6.46.38l3.42,1.14v.57q0,.57-.38.57l-1.52.76a4.23,4.23,0,0,1-1.9.38,61.933,61.933,0,0,1-7.98-.76l-7.6-.76a80.106,80.106,0,0,1-9.12-.38h-.76v-.76ZM-211.47-237.5l1.52-.38h36.1q4.56,0,14.44.76a9.885,9.885,0,0,1,3.04.38h-55.1Zm-6.84,201.02q-1.14-1.9-1.14-45.98,0-11.78.19-16.15t.19-4.75h.76Zm7.6-95.38a6.227,6.227,0,0,1,.95-.76,1.847,1.847,0,0,1,.95-.38h6.46a34.436,34.436,0,0,1,6.08.38,114.907,114.907,0,0,0,15.2.76l7.98-.38h2.28v.76l-1.9.38h-34.2a11.528,11.528,0,0,1-3.42-.38v-.19Q-210.33-131.86-210.71-131.86Zm55.86-80.56q-14.82,0-22.42.38-5.7,0-14.06.19t-19.38-.19v-.76l1.52-.38,33.44.38h20.9Zm-69.16,35.34q0-4.18-.76-12.54l-.38-12.54.38-1.52a100.549,100.549,0,0,1,1.52,18.62q0,9.12-.38,13.3l-.38,13.68Zm23.56,165.3h1.52v.38l-14.82.76v-.38l2.28-.38-.76-.38v-.76a206.918,206.918,0,0,1,21.28-1.14v1.14l-9.5.38Zm-15.2-131.48q.38-3.8.38-11.02,0-8.36-.38-12.54,0-3.04-.19-7.79a106.983,106.983,0,0,1,.19-10.83h.76v42.18Zm4.94-80.56h43.7l.38.76h-44.08Zm44.84,206.34h3.04a2.341,2.341,0,0,1,1.33.38,12.422,12.422,0,0,0,1.33.76v.19q0,.19-.38.19h-22.42l-1.14-.38v-.76l1.52-.38Zm-39.52-193.04h48.26v.38h-48.26Zm-9.5,148.96q0,3.04.76,9.88l.38,4.94a1.548,1.548,0,0,1,.38,1.14,61.7,61.7,0,0,0-.76,7.6l-.38,1.52h-.76l-.38-1.9q0-10.26.38-15.2v-7.98Zm23.94,54.72-1.9.38-25.46.76h-1.9v-.76l29.26-1.14Zm-16.72-9.88q4.94,0,14.82-.76a5.833,5.833,0,0,1,2.28.76v.38a.336.336,0,0,1-.38.38l-2.28.38h-16.34v-.76Zm-7.98-172.14q-.38-2.28-.76-5.13a50.969,50.969,0,0,1-.38-6.65l.38-4.18q.38.38.95,3.61a38.2,38.2,0,0,1,.57,6.65Q-214.89-189.62-215.65-188.86Zm6.08,51.68h22.42v.38h-22.42Zm1.14,119.7q.76-.76,4.37-1.14a70.758,70.758,0,0,1,7.41-.38q5.7,0,6.46.76Zm-30.78-173.66a61.4,61.4,0,0,1-.38-7.98,31.477,31.477,0,0,1,.38-5.7h.76v13.68Zm47.5-22.42h-18.62v-.38h18.62Zm6.46,73.72h-23.94v-.38h23.94Zm36.48-81.32q1.9,0,1.9,4.18l-4.94-3.42Zm-49.4-17.48h13.68v.38h-13.68ZM-167.01-19h0Zm-43.7-219.26a3.708,3.708,0,0,1,2.66-.76l6.08.76ZM-179.93-22.8h6.84v.38h-6.84Zm-41.8-176.32a102.942,102.942,0,0,0,.76,10.64h-.76l-.38-10.64ZM-224.01-5.7l-8.36-1.14v-.38l8.36.76Zm32.3-16.34h-6.08v-.38h6.08Zm-26.22-185.82q-.76.76-1.14.76a.609.609,0,0,1-.57-.38.609.609,0,0,0-.57-.38l1.14-1.14Zm17.86,193.04,6.84-.38v.76h-6.84Zm-44.46-42.56a.336.336,0,0,1-.38.38v-5.32h.38Zm68.4-79.04h0Zm8.36,128.06h-5.7v-.38h5.7Zm-7.6-23.56a6.193,6.193,0,0,0-4.56,1.52h12.92l-6.46-1.52Zm-8.74,2.28v-1.14a46.63,46.63,0,0,1-6.08.76v.76Zm6.46-4.56q3.42,0,3.8-1.14l-6.84,1.14Zm1.14-191.9h0Zm64.98-14.82q-3.42,2.66-3.42,6.08.38,6.08.38,18.24a11.943,11.943,0,0,1-.19,1.9,6.6,6.6,0,0,0,.19,2.66,24.4,24.4,0,0,0,.38,4.37,22.322,22.322,0,0,1,.38,3.99l.38,31.16-.38,12.16q0,11.4.76,34.2v7.6q0,2.66-.19,6.46a69.865,69.865,0,0,0,.19,8.74,53.669,53.669,0,0,0,.38,6.27,53.669,53.669,0,0,1,.38,6.27,57.453,57.453,0,0,1-.38,7.6l-.38,7.6V-26.6l.38,24.32q0,2.28,1.9,2.28a13.314,13.314,0,0,1,4.18-.76,4.727,4.727,0,0,1,2.66,0,13,13,0,0,1,2.47.38,3.967,3.967,0,0,0,2.47,0q2.28,0,2.66,1.14.38,1.52,2.66,1.52l5.32.38h4.18l3.42-.38A5.059,5.059,0,0,0-77.33.95,3.8,3.8,0,0,0-75.81-1.9l.38-10.64-.38-18.62V-98.04h10.26q.38,0,1.14.76a71.57,71.57,0,0,0,3.04,7.6l6.08,20.52.38.76,4.18,9.5a13.7,13.7,0,0,1,1.14,3.99,27.667,27.667,0,0,1,.38,3.23q3.8,12.54,7.22,20.9l2.66,6.84,2.28,7.6,2.66,7.6q.38.76.95,2.28a6.366,6.366,0,0,0,1.33,2.28,30.944,30.944,0,0,0,7.98,5.32l2.66-.38,1.9-.38q1.14.38,2.47.76a16.682,16.682,0,0,1,2.85,1.14,12.437,12.437,0,0,0,3.04.76A5.053,5.053,0,0,0-8.17,1.9,6.9,6.9,0,0,1-.95.76H1.71Q5.51.38,8.55-3.42A3.972,3.972,0,0,0,9.31-7.6a6.666,6.666,0,0,1-.76-1.9L2.85-25.46l-13.3-36.86-5.32-12.92a41.493,41.493,0,0,1-3.61-9.12q-1.33-4.94-1.71-6.46l-4.18-12.54a6.031,6.031,0,0,1-.38-1.71q0-.57,1.52-1.33a27.322,27.322,0,0,0,10.26-7.98l4.18-5.32a37.634,37.634,0,0,0,8.36-17.86Q.19-149.72.57-156.18q1.14-12.16,1.14-24.7a53.192,53.192,0,0,0-1.9-19.38q-.76-2.28-1.9-7.03a47.633,47.633,0,0,0-2.66-8.17q-3.42-7.22-11.4-13.3a99.137,99.137,0,0,0-16.72-9.12,27.724,27.724,0,0,0-12.54-3.04l-24.7-.76-24.32-.38a101.3,101.3,0,0,0-10.26.38q-4.18,0-5.32,2.66Zm96.52,61.56h-.76l-.38-11.78a66.262,66.262,0,0,1-1.9-7.98h.38a19.5,19.5,0,0,1,1.52,7.98l.38,3.04ZM-27.17-18.62q-5.32-14.82-6.46-19l-1.14-1.52q0,.38-.19.38h-.19l1.14,4.18-.38.38-3.42-9.5-3.04-9.88-3.42-9.5.76-.38,4.94,14.44h.38l-.76-2.66q-1.52-7.6-3.04-10.64a8.968,8.968,0,0,0-1.9-4.18A18.173,18.173,0,0,1-46.93-76v-2.66l.38,1.14a43.5,43.5,0,0,0,2.09,4.37,44.834,44.834,0,0,1,2.47,5.51l3.8,10.26q1.9,6.46,2.66,7.6l7.22,20.9,4.56,13.3.38,1.52-.38.76a4.057,4.057,0,0,1,.95,2.47,7.866,7.866,0,0,0,.57,2.47,6.983,6.983,0,0,1-3.42-4.56,22.849,22.849,0,0,1-.76-3.8Zm12.54-36.86a16.011,16.011,0,0,1,3.61,5.89q1.33,3.61,1.71,5.13l1.14,4.56L-7.03-38q3.8,11.4,6.08,17.1l3.42,9.12.38,1.52H2.66q-.19,0-.19.38L.95-12.16l-3.42-9.88-5.7-17.1v-.76a31.25,31.25,0,0,1-2.66-4.56l-.76-1.9.38-1.14a7.319,7.319,0,0,0-1.52-3.42q-1.14-1.14-1.9-4.56L-21.47-72.2a23.562,23.562,0,0,1-1.52-5.32,1.548,1.548,0,0,1,.38,1.14q2.66,6.08,7.22,19a1.289,1.289,0,0,1,.38.95A1.289,1.289,0,0,0-14.63-55.48Zm-12.54-159.6-.76-.76.38-.38q5.32,3.8,8.36,14.44l-.38-1.14a1.548,1.548,0,0,1-.38-1.14l-1.52-1.14,3.04,7.22h-.38q-.38-.76-1.52-2.85a9,9,0,0,1-1.14-4.37q-1.52-3.42-1.9-4.56a2.622,2.622,0,0,0-.95-1.71,6.99,6.99,0,0,1-1.33-1.71l-.38.38a13.233,13.233,0,0,1-2.66-2.66ZM-37.05-34.2l-.76-.76a1.548,1.548,0,0,1-.38-1.14l-5.32-15.2q-1.9-6.08-6.46-18.24v-1.52q2.66,5.7,5.13,12.73t3.23,9.69A96.954,96.954,0,0,0-37.05-34.2q6.08,16.72,8.74,25.46h-.38l-5.7-15.96-2.28-6.84A6.522,6.522,0,0,0-37.05-34.2Zm1.14-41.04a19.877,19.877,0,0,0,1.14,3.23q.76,1.71,1.52,3.99l-.76-.38L-13.49-9.5h-.38l-1.52-3.04-3.8-10.26q-2.28-6.46-2.66-7.6L-36.67-72.58-40.09-83.6l-3.04-9.5h.38l1.9,5.32,6.08,17.86a2.19,2.19,0,0,0,.76,1.52l-2.28-6.84Zm22.42-106.78a69.784,69.784,0,0,1,.38,8.74,75.583,75.583,0,0,1-.38,8.74q0,4.56-.76,12.92.76-19.76.76-30.4v-5.32l-.76-6.84-.38-2.28q-1.14-3.04-2.28-5.89t-1.9-5.13a17.166,17.166,0,0,0-9.5-11.02q-6.84-3.42-16.34-7.22l-1.14-.38H-75.43q-.38,0-1.14-.76.76-.76,1.14-.76A122.4,122.4,0,0,1-59.47-228h5.7a31.477,31.477,0,0,1,5.7.38,58.885,58.885,0,0,1,15.96,5.32q7.22,3.8,10.64,8.74a17.44,17.44,0,0,1,3.42,7.22l1.9,4.94q2.28,4.56,3.04,14.44A26.053,26.053,0,0,1-13.49-182.02ZM-64.03-205.2a24.84,24.84,0,0,1,7.22-.38,51.916,51.916,0,0,1,8.36.57,12.284,12.284,0,0,1,6.08,2.85q4.18,3.42,5.32,10.26l1.14,14.44v12.92a31.478,31.478,0,0,1-.38,5.7,74.775,74.775,0,0,1-1.9,11.02,17.021,17.021,0,0,1-4.56,7.6q-3.42,3.42-6.84,3.8-6.08.76-14.25,1.14t-11.21.38q-1.14,0-1.14-.76v-1.14q0-3.8-.19-9.12t.19-12.16V-203.3a3.109,3.109,0,0,1,.38-1.71,3.252,3.252,0,0,1,1.9-.95,38.612,38.612,0,0,0,6.08-.38,30.094,30.094,0,0,0,4.94-.38,30.1,30.1,0,0,1,4.94-.38,17.955,17.955,0,0,1,4.37-.19,26.638,26.638,0,0,0,2.85.19l1.14.38v.76H-64.03Zm53.2,58.9a37.768,37.768,0,0,1-3.8,11.02,114.237,114.237,0,0,1-7.22,11.4h-.38a71.881,71.881,0,0,1,4.18-6.84,33.315,33.315,0,0,0,5.7-16.34q.76-10.64,1.52-31.16a78.628,78.628,0,0,0-1.9-20.14,10.734,10.734,0,0,0-1.14-3.23,13.924,13.924,0,0,1-1.14-2.47l-2.66-6.46a20.672,20.672,0,0,0-11.78-12.16L-43.13-228a26.664,26.664,0,0,0-8.93-1.71q-5.13-.19-7.41-.19-7.6,0-11.4.38a6.666,6.666,0,0,1-1.9-.76,22.638,22.638,0,0,0,4.94-.38v-.38l-8.36-.38v-.38h27.74l4.56-.38a7.12,7.12,0,0,1,3.8.76q6.08,2.28,9.12,3.8,8.36,4.18,10.64,6.84,5.7,6.46,6.84,9.5,5.32,14.44,5.7,22.42.38,4.94.38,15.2,0,7.22-.38,11.02a71.221,71.221,0,0,0-.38,8.36q-.38,6.84-4.18,19.76l2.28-11.4Zm-13.68-51.3a6.752,6.752,0,0,1,.57,1.9,3.4,3.4,0,0,0,.95,1.9v.76l.76,6.08q.76,8.36.76,12.16l-.38,8.36q0,7.6-.38,11.4a32.881,32.881,0,0,1-3.04,14.82q-5.32,12.16-15.96,14.82-6.84,2.28-10.26,3.04a31.478,31.478,0,0,1-5.7.38l-4.56.38-3.42-.38v-.38q8.36-.76,12.92-1.52a17.517,17.517,0,0,0,6.08-1.52,44.18,44.18,0,0,0,7.98-3.04q5.7-3.04,7.6-6.46l.38-.76a2.98,2.98,0,0,1,2.28-3.04v-1.9l3.42-12.92q1.14-5.32,1.14-15.96v-7.98q0-4.18-.76-11.78a25.2,25.2,0,0,0-1.52-5.13q-1.14-2.85-1.52-3.99a6.764,6.764,0,0,1,.76-4.56Zm-66.5,59.28a2.578,2.578,0,0,0-.76,1.9q-1.52-2.66-1.52-51.68v-15.58h2.66v33.82l.76,33.44-.76.38ZM-13.49-22.04q-2.28-6.84-3.8-10.26a14.851,14.851,0,0,0-1.14-3.04,14.851,14.851,0,0,1-1.14-3.04l-6.46-19.38q-5.32-13.68-7.6-20.52-1.14-3.04-2.09-6.46t-2.09-6.84q-.76-1.9-1.52-3.42a20.851,20.851,0,0,1-1.14-2.66l-.76-1.9q0-.38.19-.38h.19l1.14,1.14q.76,1.52,1.71,3.8a44.971,44.971,0,0,1,1.71,4.94q1.9,7.6,7.98,22.04.76,2.28,1.52,3.99a19.876,19.876,0,0,1,1.14,3.23q8.36,25.08,12.92,37.62l3.8,9.5,2.28,6.84-.38.38-1.14-.76Zm-68.4-22.04q0-7.6-.38-11.02a89.98,89.98,0,0,1,.38-13.68l.38-9.88q0-11.02.38-16.34v-1.52l.38-.38.38,1.9v58.9q-.38,7.22-.38,21.28a15.881,15.881,0,0,0-.76,2.66h-.38Zm57.76-95a22.112,22.112,0,0,1,.95-3.42q.57-1.52.95-2.66l1.14-16.72,1.14-17.48v-.19q0-.19.38-.19v4.18h.76v-9.5h.38q.38,0,.38.76a48.73,48.73,0,0,1,.38,7.22,6.193,6.193,0,0,1-1.52,4.56,7.9,7.9,0,0,0-.38,3.04h.38a1.289,1.289,0,0,0,.38-.95,1.289,1.289,0,0,1,.38-.95h.76a65.516,65.516,0,0,0-.38,8.36,103.543,103.543,0,0,1-.57,11.97,34.932,34.932,0,0,1-2.47,9.31h-.38l.76-5.7h-.38l-2.28,8.36ZM-84.55-13.3q0-27.74.76-84.74h.38l.38,1.52v9.12l.38,9.88-.38,9.5-1.14,22.8.38,7.22v22.42l-.38,2.28Zm54.34-67.26Q-19.19-49.4-5.51-11.78l-.76.38a2.578,2.578,0,0,1-.76-1.9l-3.8-10.26a69.02,69.02,0,0,0-2.66-7.6l-5.7-16.34a2.906,2.906,0,0,1-.57-1.52,2.906,2.906,0,0,0-.57-1.52,2.564,2.564,0,0,1-1.14-1.71,8.557,8.557,0,0,1-.38-1.71q-1.14-2.66-7.22-19l-2.28-7.6ZM-92.53-36.1a45.193,45.193,0,0,1-.38,6.84q-.76-19.76-.76-29.64,0-9.12.38-13.68h.76V-39.9h.38V-50.92h.76l.38,36.48h-.76l-.38-10.64V-36.1Zm8.74-99.94-.38-1.52-.38-38.38v-26.98l.38-1.14h.76v68.02Zm57.38-33.82a14.969,14.969,0,0,0,.19-4.18q-.19-2.28-.19-3.42l-.76-12.92a28.306,28.306,0,0,0-2.66-8.36l-1.14-4.18h.76l1.52,3.42q3.42,6.08,3.42,17.1v5.7a248.4,248.4,0,0,1-1.14,28.12,7.743,7.743,0,0,1-.57,2.66,7.281,7.281,0,0,0-.57,2.28ZM-2.47-9.12Q-3.61-9.88-17.1-46.93T-30.59-85.88h.38l5.7,15.96Q-7.41-22.04-2.47-9.12ZM-46.55-215.46q-1.52,0-1.52-1.14l-.76-.38a102.943,102.943,0,0,0-10.64-.76,41.822,41.822,0,0,0-6.46.38,6.6,6.6,0,0,1-2.66.19,13.845,13.845,0,0,0-2.28-.19l-1.9.38-2.66.38q-.38,0-.38-.76l2.28-.38a83.078,83.078,0,0,1,13.68-1.14,57.455,57.455,0,0,1,7.6.38,41.2,41.2,0,0,1,17.86,5.32l2.28,1.9-12.16-4.56Zm15.2,10.26a18.075,18.075,0,0,0-7.41-4.18q-4.75-1.52-6.65-2.28a25.934,25.934,0,0,0-10.07-1.9H-75.81l.38-.38q3.04-.38,7.03-.76t9.31-.38a80.638,80.638,0,0,1,9.12.76,41.737,41.737,0,0,1,15.96,5.7A5.583,5.583,0,0,1-31.35-205.2ZM-19.19-10.64q-6.84-16.34-14.06-38.38-6.84-19.76-10.64-29.64,7.22,16.72,15.58,42.56ZM-93.67-140.98q-1.14-11.78-1.14-35.34l-.76-26.6h.76Zm63.08-33.44q0-12.54-1.14-18.62a84.388,84.388,0,0,1,2.28,19.76q0,6.08-.38,10.45t-.76,7.41Zm-38-45.98h-6.84l-.76-.38.76-.76,11.02-.38q4.56,0,12.92.76h1.52v.76H-68.59Zm34.2,31.54q.76,8.36.76,12.54l-.38,17.1h-.38Zm-47.5,8.36v-5.32l-.76-16.34.38-2.28h.76v23.94Zm5.32-41.8q1.52-1.52,10.26-1.52,6.08,0,9.88.38Zm28.12,102.22q3.42-1.14,5.89-2.09t4.75-1.71a21.869,21.869,0,0,0,9.88-7.22q.38,0,1.14-.76a21.979,21.979,0,0,1-8.74,7.98A43.231,43.231,0,0,1-48.45-120.08Zm4.18-94.62q.38,0,.38-.19v-.19a52.5,52.5,0,0,1,12.92,5.7q-.38,0-.38.76Zm-28.88-4.94,22.04-.38v.76H-73.15ZM-90.63-98.04h.38v22.42Zm-15.2-87.02v-17.1h.38v17.1Zm90.82,14.82-1.14,20.52h-.38l.76-20.52Zm-60.8-67.64h17.1v.38h-17.1Zm59.28,60.42v12.16h-.38v-12.16Zm12.92,18.62q0,3.42-.76,11.02h-.38v-5.7a32.021,32.021,0,0,0,.76-5.32ZM-11.59-10.26q-3.8-9.12-5.32-13.68h.38q1.52,3.8,2.85,7.03t2.47,6.27h-.19Q-11.59-10.64-11.59-10.26Zm-1.9-125.02q0,3.04-3.04,6.84h-.76l3.8-7.6Zm-31.16-83.6q.76-.76,1.14-.76,1.9,0,5.7,2.66ZM-81.89-167.2v-8.74h.38v8.74Zm0,12.54-.38-7.22h.76v7.22ZM-2.85-188.1v10.26h-.76l.38-10.26ZM-90.25-69.54v15.58h-.38V-69.54Zm58.52,60.8-3.42-9.12a.336.336,0,0,1,.38-.38l3.42,9.5ZM-75.05-109.06h8.74v.38h-8.74Zm-15.2,85.12V-11.4h-.38V-23.94Zm-3.04-72.58.76,7.98h-.76l-.38-7.98Zm45.22-135.66a34.437,34.437,0,0,0-6.08-.38v-.38h6.08Zm44.84,56.62v11.02h-.38v-11.02ZM-15.01-16.72l2.66,6.46a.336.336,0,0,1-.38.38l-2.66-6.84Zm-12.54-79.8a45.135,45.135,0,0,0-3.04-5.7l.76-.38,2.66,5.7Zm10.26-93.1-1.14-6.08h.38l1.14,6.08Zm-74.1,96.9v5.32h-.38v-5.32Zm-14.06-87.78v0ZM-21.09-38.38l1.9,6.08-.38.38L-21.85-38Zm-5.32,18.62-.76,1.14.76,1.9,3.04,2.66-.38-1.52Zm15.2-181.26a13.967,13.967,0,0,1-1.14-3.23q-.38-1.71-.76-3.23-3.04-9.5-8.36-12.54l-11.02-6.08a87.543,87.543,0,0,1-7.98-4.18,4.23,4.23,0,0,0-1.9-.38l-8.74-.76h-1.14a64.807,64.807,0,0,0,8.74,1.52q1.52.38,2.66.76l2.28.76,2.28,1.14q2.66,1.52,5.7,3.04t6.46,3.42a21.364,21.364,0,0,1,9.5,12.54,71.573,71.573,0,0,0,3.04,7.6Zm2.28,15.96a13.334,13.334,0,0,0,.38-3.8q0-6.84-1.9-8.74Zm-.76,31.92a81.643,81.643,0,0,1,.76-9.5h-.76l-.76,9.5Zm-6.46-57.76a16.66,16.66,0,0,1-1.9-3.42h-.38q.38,1.14.76,2.09t.76,1.71Zm-76,47.12h.38v-8.74h-.38Zm71.82,14.06a72.852,72.852,0,0,1,.57-7.98,41.246,41.246,0,0,0,.19-8.74Q-20.33-155.04-20.33-149.72Zm215.08,22.8q-.76.76-1.14.76h-.76a1.548,1.548,0,0,1,.38-1.14,30.961,30.961,0,0,1,2.66-4.37,30.96,30.96,0,0,0,2.66-4.37,45.166,45.166,0,0,0,3.42-13.68l-.76,3.04q-2.66,11.78-8.36,17.86-1.14,1.52-3.04.38-1.52-1.14,0-2.66,3.42-3.8,6.08-11.4a97.885,97.885,0,0,0,3.8-27.74,96.2,96.2,0,0,0-.38-9.88,101.549,101.549,0,0,0-2.28-16.72l-1.52-11.4a6.665,6.665,0,0,0-.76-1.9q-.76-1.9-2.09-4.75a74.512,74.512,0,0,0-3.61-6.65q-3.04-6.08-6.08-7.98v-.76a16.889,16.889,0,0,0,2.09,1.71,4.34,4.34,0,0,1,1.71,2.09l7.98,12.54a68.208,68.208,0,0,1,3.8,9.5l3.04,12.54.38-.38q-.38-1.9-1.14-7.03a66.261,66.261,0,0,1-.76-9.69l.76.76,1.14.76.38-1.14a20.67,20.67,0,0,0-1.9-6.84,60.879,60.879,0,0,0-3.23-5.7,60.878,60.878,0,0,1-3.23-5.7q-3.8-7.22-15.58-11.4-7.98-3.8-20.9-3.8-10.64-.76-16.34-.76l-22.04.38a25.177,25.177,0,0,0-5.32.38,28.68,28.68,0,0,1-5.32.38,45.192,45.192,0,0,1-6.84-.38h-.76q-3.42,0-3.42,3.42l.38,3.04-.38,23.18.38,14.44-.38,15.58v42.56l-.38,7.22.38,9.88V-87.4l.38,20.52v2.28q0,9.88-.38,14.82l-.38,11.02q0,3.8.19,9.12T97.09-17.1A29.993,29.993,0,0,0,99.37-4.56h-.19q-.19,0-.19.38l-1.52-.38.76,1.14a24.1,24.1,0,0,1,3.99,1.52,10.193,10.193,0,0,0,3.99,1.14,12.437,12.437,0,0,0,3.04-.76h.38a25.584,25.584,0,0,0,4.18-.38,4.766,4.766,0,0,1,3.42.38,22.638,22.638,0,0,1,4.94-.38A25.57,25.57,0,0,1,131.29,0l1.52-.76,5.32.76V-.38l-2.66-.38v-.76h2.66q4.56-.38,13.68-.38,5.7-.38,16.34-1.9,11.78-.76,19.76-5.7,13.68-7.98,18.24-19.76a85.377,85.377,0,0,0,6.08-26.6,21.358,21.358,0,0,1,.76-4.94v-.19q0-.19-.38-.19l-1.14,1.14v-3.42a61.4,61.4,0,0,1-.38-7.98V-77.9a42.854,42.854,0,0,0-.76-9.5q-.38-2.28-1.14-7.22a20.5,20.5,0,0,0-3.04-8.36q-.38-.76-.95-2.09t-.95-2.09l-5.7-9.12.76.38v-.38l-6.46-6.84v-.19q0-.19.38-.19l1.52,1.14,6.84,6.84a29.344,29.344,0,0,1,6.46,10.64,71.849,71.849,0,0,1,2.66,7.98l-.38-4.18a43.744,43.744,0,0,0-7.22-14.06,77.863,77.863,0,0,0-7.22-8.36,2.639,2.639,0,0,1-.76-2.66Zm0,19q.76.76,2.28,2.47a7.958,7.958,0,0,1,1.9,3.23,35.461,35.461,0,0,1,2.28,10.26q.38,3.42.76,8.55t.38,12.35q0,3.8-.76,12.16,0,.76.19,2.85a10.92,10.92,0,0,1-.19,3.61l-.76,3.04h-.38l-.38-1.14q.76-9.12.76-14.06,0-9.5-.76-28.5a25.887,25.887,0,0,0-3.8-11.78,14.893,14.893,0,0,1-1.52-3.42,21.747,21.747,0,0,1-4.18-3.8q-.38-.38-4.94-6.08l-.76.38h.76l8.74,8.74Q194.75-109.06,194.75-107.92Zm-4.18-28.88q-.76.76-1.9,2.09a7.677,7.677,0,0,0-1.52,2.47q0,.76-1.14.76V-133q-.38.38,5.32-6.46.38-1.14,1.14-3.61t1.14-4.37q1.14-7.6,1.9-22.8a52.832,52.832,0,0,0-.19-9.88q-.57-5.7-.95-8.74-.76-9.88-1.52-15.2-.76-6.08-3.04-9.12l-2.28-3.42q.38,0,.38-.19v-.19q.76,1.14,1.71,2.47t1.71,2.47a30.756,30.756,0,0,1,2.47,9.5q.57,5.32.95,7.22a9.029,9.029,0,0,0,.38,2.47,9.029,9.029,0,0,1,.38,2.47h.38l-.38-4.18h.76a64.572,64.572,0,0,1,1.52,11.78h-.38a1.548,1.548,0,0,1-.38-1.14v9.5h.38v-5.7q.76,1.52.76,6.46a133.153,133.153,0,0,1-1.14,15.77q-1.14,9.31-2.28,12.35l.38-2.66h-.38l-1.14,4.56-2.28,4.18Zm9.88,106.4a58.027,58.027,0,0,0,4.18-14.06,38.821,38.821,0,0,0,1.52-11.4,34.435,34.435,0,0,0-.38-6.08q0-1.52.19-4.75a21.026,21.026,0,0,0-.19-5.13q-.76-15.96-1.52-24.32-.38-9.12-8.36-17.48l-5.32-5.7-.76-1.52a3.006,3.006,0,0,1,1.9.38,71.555,71.555,0,0,1,5.89,4.94,15.121,15.121,0,0,1,3.99,5.7q4.56,9.88,5.32,13.3a90.25,90.25,0,0,1,3.04,24.7l-.38,11.4q-.76,11.78-2.28,17.48-2.66,12.92-8.36,20.52-1.52,2.66-7.6,6.84-7.6,5.32-11.02,6.46a35.064,35.064,0,0,1-9.88,2.66q-4.56.76-12.92,1.52-13.68.76-20.14.76-.38.38-1.52-.38l1.52-.76a.774.774,0,0,1-.57-.19.774.774,0,0,0-.57-.19h.76a48.69,48.69,0,0,1,7.41-.19,48.69,48.69,0,0,0,7.41-.19q.76,0,6.46-1.14h6.46q4.94-1.52,6.46-1.9,11.4-1.9,18.62-7.98,5.7-4.56,7.6-8.36a51.77,51.77,0,0,1-9.12,9.12q-8.74,5.7-21.28,7.6a101.832,101.832,0,0,0-10.26.76L146.11-6.84a26.046,26.046,0,0,1-5.32.19q-2.28-.19-3.8-.19h-1.14V-7.6h1.14q9.5-.38,19.19-1.14a115.5,115.5,0,0,0,17.67-2.66,44.651,44.651,0,0,0,20.52-12.54q4.18-4.94,6.84-14.44l3.8-12.92a60.028,60.028,0,0,1-2.28,12.73Q200.83-31.92,200.45-30.4Zm-41.04-73.34q6.46-.38,11.78,4.75a14.893,14.893,0,0,1,4.94,11.97q0,22.42-.76,33.44a80.484,80.484,0,0,1-2.66,12.54l-1.14,1.14q-.76,0-.76.38-2.28,2.66-6.84,2.66a67.158,67.158,0,0,0-7.03.38,67.158,67.158,0,0,1-7.03.38l-12.92.76a1.679,1.679,0,0,1-1.9-1.9q.38-5.7.38-17.48v-46.74q-.38-2.28,2.28-2.28h21.66Zm-18.24-36.1a18.036,18.036,0,0,1-4.18.38,1.344,1.344,0,0,1-1.52-1.52v-32.68l-.38-20.52v-13.3a3.006,3.006,0,0,1,.38-1.9,3.006,3.006,0,0,1,1.9-.38q2.66,0,6.84.19t9.88.95a27.848,27.848,0,0,1,5.32,1.14q2.28.76,3.8,1.14,1.9,1.14,4.56,5.32a11.318,11.318,0,0,1,2.09,6.08q.19,3.42.19,4.56.38,3.04.76,7.22t.38,9.88q0,4.18-.76,11.78-.76,5.32-1.52,8.36a15.1,15.1,0,0,1-7.98,8.74Q149.91-139.84,141.17-139.84Zm-19,104.5a32.008,32.008,0,0,1-.76-5.7q-.38-5.32-.38-16.34V-73.72l-.38-27.36a1.755,1.755,0,0,1,1.14-1.9q1.14,0,1.14,1.9a34.436,34.436,0,0,1,.38,6.08l-.38,40.28.38,15.2-.38,4.18Zm-2.66-106.02-.76.76q-.76,0-.76-.38a4.23,4.23,0,0,1-.38-1.9q0-8.36.38-12.54v-2.66q-.76-10.64-.76-16.34v-32.3a2.2,2.2,0,0,1,.38-1.52q0-.38,1.14-.38l.38.76v2.28l.38,24.7v39.52Zm2.28-68.02q1.9.38,1.9,3.04v15.96l-.38,10.26.38,6.84-.38,30.4v1.52l-1.14,1.52-1.14-1.52.38-2.28a45.723,45.723,0,0,0,.76-6.84l-.38-8.74v-50.16ZM119.13-47.12a4.446,4.446,0,0,1-1.52-3.8l.38-28.5-.38-20.9v-1.14l.76-1.14q.76.76.76,1.14a37.551,37.551,0,0,1,.38,6.46l.38,29.64q-.38,5.7-.38,16.34Zm35.34,27.36q7.6-1.52,11.78-1.9a31.534,31.534,0,0,0,17.1-7.22,16.109,16.109,0,0,0,4.94-7.22q.76-3.04,2.28-8.74a59.477,59.477,0,0,0,1.9-10.26l.38-21.28a5.292,5.292,0,0,1,.38-2.28h.38l.38,2.66q0,4.94-.76,16.34a80.1,80.1,0,0,1-.38,9.12l-1.14,6.46a21.518,21.518,0,0,0-1.14,6.84,11.92,11.92,0,0,1-3.8,7.22,41.025,41.025,0,0,1-22.42,9.5,23.6,23.6,0,0,0-4.56.38q-1.9.38-3.42.76h-1.9Zm45.6-26.22a1.686,1.686,0,0,0,.19.76q.19.38-.19.38-2.28,10.64-4.94,15.2-6.84,12.54-21.66,15.58a205.536,205.536,0,0,1-24.32,3.42,53.741,53.741,0,0,1-10.64.76h-3.04v-.76l1.14-.38q10.26,0,32.3-3.04a43.588,43.588,0,0,0,19.76-8.74,27.444,27.444,0,0,0,7.22-10.64l3.42-11.78.38-.76ZM132.05-102.6l.38,1.9v45.6l.38,17.1-.38,1.9h-.76v-66.5Zm47.12-5.7q8.36,4.18,8.74,12.54a169.215,169.215,0,0,1,1.14,20.14q0,4.56-.76,13.68,0,1.52.19,3.99a16.111,16.111,0,0,1-.19,4.37,15.165,15.165,0,0,1-.57,3.99,13.29,13.29,0,0,0-.57,3.23h-.38v-1.52a44.173,44.173,0,0,0,1.14-10.64v-9.5q0-9.12-.76-26.6,0-7.22-4.94-11.02Zm18.24,54.34.38-25.08a102.942,102.942,0,0,0-.76-10.64v-2.66h.76a21.357,21.357,0,0,1,.76,4.94v33.06q0,.76-2.28,12.92-.76.76-.76,1.14h-.76l1.52-5.7Zm-64.6-86.26h-.38V-209h.76v13.68Zm-4.18-3.8v0ZM162.45-34.58q-18.24,2.28-25.46,3.04l-1.52-.76q1.14-1.14,1.52-1.14a80.29,80.29,0,0,1,8.74-.76l9.12-.76,6.08-.38h3.04v.38Zm26.6-164.16q.38,1.52.76,3.23a20.708,20.708,0,0,1,.38,4.37q.76,13.68.76,20.52v7.98l-.38,2.28-.76-.38q0-3.04.19-7.79t-.19-11.21l-1.14-19Zm14.06,104.5q-.76-4.56-1.52-7.6-.76-3.42-5.7-9.12l-6.84-6.84-1.14-1.52q3.04.76,7.98,6.84,8.74,9.88,8.74,21.28l-.38,3.8-.38.38Zm-41.8,67.26q-1.52,1.14-8.93,2.09a102.265,102.265,0,0,1-12.73.95q-3.8,0-4.18-.38Zm24.7-173.66a20.257,20.257,0,0,1,.38,4.56,66.944,66.944,0,0,1,1.52,9.5l.76,4.18v9.88h-.38l-2.66-28.12ZM155.61-30.4a31.144,31.144,0,0,1-11.4,2.47q-6.08.19-7.98.19v-.38ZM98.23-45.22q0,7.98.76,23.18h-.76Zm87.02-111.72q0,13.68-6.46,22.04a38.108,38.108,0,0,1,2.09-4.94,46.554,46.554,0,0,0,2.47-6.08,21.181,21.181,0,0,0,1.14-5.32Q184.87-154.66,185.25-156.94ZM182.21-190q.38,1.9,1.14,6.08a42.817,42.817,0,0,1,.76,7.6,22.637,22.637,0,0,1-.38,4.94Zm10.64,37.24a50.081,50.081,0,0,1-2.66,11.21q-1.9,5.13-4.56,6.65a27.725,27.725,0,0,0,4.18-7.6A105.374,105.374,0,0,0,192.85-152.76Zm-20.14-57.76a17.126,17.126,0,0,0-7.22-3.99,85.437,85.437,0,0,0-11.02-1.71,30.655,30.655,0,0,1,10.83,1.14Q170.43-213.56,172.71-210.52ZM129.39-43.7V-58.14h.76V-43.7Zm21.66,25.84,14.06-2.28v.76L151.05-17.1ZM174.61-169.1l-1.14-15.96h.76l.76,15.96Zm18.62,62.7q-5.32-4.94-9.12-9.12a18.954,18.954,0,0,1,5.32,4.94q2.66,3.42,3.42,4.56l-.38.38Zm-4.56-52.82a21.37,21.37,0,0,1-.76-6.46,22.64,22.64,0,0,1,.38-4.94h.76a10.332,10.332,0,0,1-.38,2.85,10.332,10.332,0,0,0-.38,2.85,40.387,40.387,0,0,0,1.14,5.32ZM128.25-44.08v-4.56l-.38-4.56.38-4.56h.38v13.68Zm19.76-182.78,9.5.76-.38.76-9.12-.76Zm22.8,210.14a64.807,64.807,0,0,1-8.74,1.52l-.38-.76,8.74-1.14q.38,0,.38.19Zm17.48-23.56a12.5,12.5,0,0,1-.76-3.8,11.891,11.891,0,0,1,.38-3.23q.38-1.33.76-2.47Zm-3.8,12.92q-.38,1.14-2.85,2.66a8.33,8.33,0,0,1-3.99,1.52Zm9.12-135.66v-9.12h.38v9.12Zm-21.28,20.14a7.645,7.645,0,0,1-2.47,3.23,8.6,8.6,0,0,1-3.61,1.71Q166.63-138.32,172.33-142.88Zm6.08-35.34a80.635,80.635,0,0,0-.76-9.12h.38l1.14,9.12Zm6.84,7.22v0ZM180.31-49.02l.76-8.36.76.38-1.14,7.98Zm3.04-112.48v-6.84h.76l-.38,6.84Zm3.42,121.98a8.058,8.058,0,0,1-1.9,5.32q2.28-7.22,1.9-6.84Zm-18.62,7.6q3.42-1.14,6.84-2.66Q173.09-31.92,168.15-31.92Zm-15.58,17.1a45.608,45.608,0,0,0,6.46-.76v.38l-6.46,1.14Zm19-132.62q0,1.9-2.66,3.04l2.66-3.8ZM178.79-39.9a3.407,3.407,0,0,1-.57,1.71,3.407,3.407,0,0,0-.57,1.71h-.76l1.52-4.56ZM136.23-18.24h3.42v.38h-3.42Zm58.9-107.92a61.161,61.161,0,0,0,5.32-5.7q4.94-9.12,4.94-15.96l.38-3.04a78.594,78.594,0,0,0,1.52-13.3,60.821,60.821,0,0,0,.19-8.17q-.19-3.61-.19-5.89a93.041,93.041,0,0,0-1.52-14.44q0-.38-.19-.38h-.57q.38,2.66.76,6.08a73.257,73.257,0,0,1,.38,7.98,34.435,34.435,0,0,1-.38,6.08,41.819,41.819,0,0,0-.38,6.46l.38,13.3h-.38l.38-4.94q-.76,3.04-1.52,7.6-1.14,10.64-5.32,17.48l-4.18,6.08ZM142.31-.38a173.1,173.1,0,0,0,29.26-1.9l6.46-1.14a54.594,54.594,0,0,0,12.92-5.7,46.015,46.015,0,0,0,14.82-14.82,31.805,31.805,0,0,0,3.99-9.69q1.33-5.51,1.71-6.65l1.14-6.08q-2.66,8.74-3.04,10.64A41.789,41.789,0,0,1,189.05-8.74q-6.84,4.18-12.16,4.94L162.83-1.52ZM202.73-152a115.415,115.415,0,0,0,1.14-16.34,156.223,156.223,0,0,0-1.14-18.62q.76,11.4.76,17.48Q203.49-164.16,202.73-152Zm7.98,63.46q.38,1.14,1.52,5.32h.38l-1.9-13.68ZM243.39-241.3a2.2,2.2,0,0,0-.38,1.52v16.72a101.831,101.831,0,0,0,.76,10.26l-.38,17.86v5.32q-.76,11.4-.76,16.72l.38,15.96a19.747,19.747,0,0,1,.19,4.94q-.19,3.04-.19,4.56v11.78l-1.14,11.78v66.12q.76,7.6.76,12.16v22.04q-.76,9.88-.76,14.44a34.437,34.437,0,0,0,.38,6.08l1.52.38L242.63-.38q1.14.76,1.52-.19a4.356,4.356,0,0,0,.38-1.33,4.23,4.23,0,0,0,1.9.38l1.14,1.9,2.28-.76q1.14-.38,2.66-.76l.76,1.52q.76.76,1.14.76l2.66-.38.38.38,1.14-1.9q.38,0,.38.19v.19q1.14,2.66,2.66.38a2.2,2.2,0,0,1,1.52-.38h1.9a23.6,23.6,0,0,1,4.56.38l.76-1.52q.76,1.9,3.04,1.14h4.94l.38-2.28q.76-10.64.76-16.72V-52.82a30.1,30.1,0,0,0-.38-4.94,30.1,30.1,0,0,1-.38-4.94V-76a32.062,32.062,0,0,0,.19-5.89q-.19-2.47-.19-3.99h-.38v1.14h-.76v-52.44l.38-.38v1.52h.38v-7.98h-.38v2.66a81.64,81.64,0,0,1-.76-9.5v-24.32q0-1.52.19-3.99a32.062,32.062,0,0,0-.19-5.89,71.221,71.221,0,0,0-.38-8.36l-.38-7.98v-15.58a13.544,13.544,0,0,0,.19-3.8,21.79,21.79,0,0,1-.19-2.66,2.19,2.19,0,0,1,1.52.76l-.76-9.12a5.292,5.292,0,0,1,.38-2.28v-3.42a3.126,3.126,0,0,1,.19-.95.861.861,0,0,0-.19-.95q-.38-.38-4.18-5.32,0-.38-.76-.38l-.76,1.52-2.28-2.66q-4.18,0-5.32,3.04l-1.52-.38a8.79,8.79,0,0,0-3.61.76q-1.71.76-2.47,1.14-.38-1.14-.95-1.14a2.085,2.085,0,0,0-1.33.76l-.38-1.14a4.677,4.677,0,0,0-2.09.76q-1.33.76-2.09-.76h-3.04l-3.04,1.9Zm9.88,79.42-.38.38a48.73,48.73,0,0,1-.38-7.22l.38-11.02a128.684,128.684,0,0,0,.38-16.34,8.46,8.46,0,0,1,.76,3.8v3.8a61.933,61.933,0,0,0,.76,7.98q-.76-38-.76-57.76l.76.76.38,8.36a50.22,50.22,0,0,1,.19,7.41q-.19,3.23-.19,5.51v9.88l1.14-1.14.38,7.22h.38a65.515,65.515,0,0,0,.38-8.36v12.54h-.38l-.38-1.14q1.52,12.54,1.9,17.86h.76v-5.7a32.009,32.009,0,0,1-.76-5.7v-22.42a3.112,3.112,0,0,1-1.14-1.9,4.677,4.677,0,0,1,.76-2.09,13.922,13.922,0,0,0,1.14-2.47q1.9,1.9,1.9,6.08v3.04a14.8,14.8,0,0,1-.76,5.32q-.76,2.66,0,3.8a4.553,4.553,0,0,1,.57,3.04,5.329,5.329,0,0,0,.19,2.66,6.609,6.609,0,0,1,.57,3.61q-.19,2.09-.19,2.85l.38,48.26q0,5.7-.76,16.34l-.38,7.98.38,9.5-.38,41.42v21.66h-.76a45.2,45.2,0,0,0-.38-6.84q-.38-7.98-.38-23.18V-114l-.38-3.8-.76,1.14h-.38l.76-2.28a3.188,3.188,0,0,0,0-3.04,3.958,3.958,0,0,1-.38-2.28q.76-14.44.76-21.66l-.38-25.46a9.885,9.885,0,0,0-.38-3.04v11.4l-.38,7.98a57.454,57.454,0,0,1-.38,7.6q-.76,25.08-.76,38a50.22,50.22,0,0,0-.19,7.41q.19,3.23.19,5.51v32.3a1.548,1.548,0,0,0,.38,1.14,1.1,1.1,0,0,1,.38.76,6.665,6.665,0,0,1,.76,1.9l.38,28.88h-.38l-.76-19.76h-.38v4.18a33.813,33.813,0,0,1-.76,6.46,3.373,3.373,0,0,0,.38,1.52,2.916,2.916,0,0,1,.38,1.14,20.156,20.156,0,0,1-.19,2.28,13.545,13.545,0,0,0,.19,3.8v1.14a18.552,18.552,0,0,1-.38,3.99,29.379,29.379,0,0,1-.76,2.85,180.785,180.785,0,0,1-.76-19.38l-.76-19.38q0-6.84-.76-19.76,0,2.28-.19,5.13a40.634,40.634,0,0,0,.19,6.65q0,8.36.38,12.16l.38,12.16v3.8a21.282,21.282,0,0,1-1.14,7.98h-.38l-.76-71.44h.76v.76a24.875,24.875,0,0,0,1.52-6.08l-.76-3.04-.76,6.08h-.19q-.19,0-.19.38l-.38-1.14v-1.52a11.774,11.774,0,0,1,.76-4.94,3.069,3.069,0,0,0,.19-1.9,11.943,11.943,0,0,1-.19-1.9,20.256,20.256,0,0,1-.38-4.56,101.831,101.831,0,0,1,.76-10.26,101.3,101.3,0,0,0,.38-10.26,17.611,17.611,0,0,0-.38-3.42,19.332,19.332,0,0,1-.38-3.8,7.172,7.172,0,0,1,.38-2.28,8.421,8.421,0,0,0,.38-2.66Zm-2.28,3.8q0,8.36-.76,24.32l-.38,12.16.38,30.78v23.94l.38,35.72-.38.76a49.126,49.126,0,0,1-1.14-12.16v-7.98a52.418,52.418,0,0,0-.38-7.6v-.38q.38,0,.38.76h.38v-5.32q-.38-6.84-.38-20.52v-37.24q0-7.98.76-22.42l-.38-36.48q-.38-11.02-.38-33.06v-7.98h.76v10.26Zm-4.18-33.06a37.55,37.55,0,0,1,.38,6.46q.38,6.46.38,20.14v23.56q-.38,6.08-.38,18.24v38.76q-.38,7.6.38,23.18a53.667,53.667,0,0,1-.38,7.22l-.38-3.8-.38-44.46-.38-19.76q0-8.74.38-13.3l.38-13.68-.38-24.32v-18.24ZM270.75-8.36q1.14-22.8,1.14-68.02v-45.6q0,6.46.76,20.9v61.94L271.51-8.36Zm-6.08-147.82-.76-47.12h.76l.38,47.12Zm-6.46,66.5a83.665,83.665,0,0,1-.38,13.3l-.38,9.12V-89.68Zm14.82-50.16v-24.7l.38-.38v25.08Zm-1.52-58.14v23.56h-.38v-23.56Zm.76-5.32v-17.1h.38v17.1Zm.38,32.68V-191.9h.38v21.28Zm-8.74,93.86v0Zm-13.3,48.64v8.74h-.38v-8.74Zm2.28-187.34v-14.82h.38v14.82Zm-3.8-16.34v8.36h-.38v-8.36Zm14.44,82.08v11.02h-.38v-11.02Zm-19.38-75.62v-8.36h.38v8.36ZM273.03-17.1v0ZM261.25-46.74v0Zm-6.46-130.34h-.38v8.36h.38Zm-1.14,80.94h.38v-7.22h-.38Zm0,9.5h.38v-6.08l-.38-.38Zm0-31.92h.38v-7.98h-.38Zm63.46-122.36q-3.42,2.66-3.42,6.08.38,6.08.38,18.24a11.941,11.941,0,0,1-.19,1.9,6.6,6.6,0,0,0,.19,2.66,24.4,24.4,0,0,0,.38,4.37,22.323,22.323,0,0,1,.38,3.99l.38,31.16-.38,12.16q0,11.4.76,34.2v7.6q0,2.66-.19,6.46a69.865,69.865,0,0,0,.19,8.74,53.67,53.67,0,0,0,.38,6.27,53.67,53.67,0,0,1,.38,6.27,57.454,57.454,0,0,1-.38,7.6l-.38,7.6V-26.6l.38,24.32q0,2.28,1.9,2.28a13.314,13.314,0,0,1,4.18-.76,4.727,4.727,0,0,1,2.66,0,13,13,0,0,1,2.47.38,3.967,3.967,0,0,0,2.47,0q2.28,0,2.66,1.14.38,1.52,2.66,1.52l5.32.38h4.18l3.42-.38A5.059,5.059,0,0,0,351.31.95a3.8,3.8,0,0,0,1.52-2.85l.38-10.64-.38-18.62V-98.04h10.26q.38,0,1.14.76a71.57,71.57,0,0,0,3.04,7.6l6.08,20.52.38.76,4.18,9.5a13.694,13.694,0,0,1,1.14,3.99,27.669,27.669,0,0,1,.38,3.23q3.8,12.54,7.22,20.9l2.66,6.84,2.28,7.6,2.66,7.6q.38.76.95,2.28a6.366,6.366,0,0,0,1.33,2.28,30.945,30.945,0,0,0,7.98,5.32l2.66-.38,1.9-.38q1.14.38,2.47.76a16.682,16.682,0,0,1,2.85,1.14,12.438,12.438,0,0,0,3.04.76,5.053,5.053,0,0,0,3.04-1.14A6.9,6.9,0,0,1,427.69.76h2.66q3.8-.38,6.84-4.18a3.972,3.972,0,0,0,.76-4.18,6.666,6.666,0,0,1-.76-1.9l-5.7-15.96-13.3-36.86-5.32-12.92a41.494,41.494,0,0,1-3.61-9.12q-1.33-4.94-1.71-6.46l-4.18-12.54a6.031,6.031,0,0,1-.38-1.71q0-.57,1.52-1.33a27.322,27.322,0,0,0,10.26-7.98l4.18-5.32a37.633,37.633,0,0,0,8.36-17.86q1.52-12.16,1.9-18.62,1.14-12.16,1.14-24.7a53.191,53.191,0,0,0-1.9-19.38q-.76-2.28-1.9-7.03a47.632,47.632,0,0,0-2.66-8.17q-3.42-7.22-11.4-13.3a99.137,99.137,0,0,0-16.72-9.12,27.724,27.724,0,0,0-12.54-3.04l-24.7-.76-24.32-.38a101.3,101.3,0,0,0-10.26.38q-4.18,0-5.32,2.66Zm96.52,61.56h-.76l-.38-11.78a66.262,66.262,0,0,1-1.9-7.98h.38a19.5,19.5,0,0,1,1.52,7.98l.38,3.04ZM401.47-18.62q-5.32-14.82-6.46-19l-1.14-1.52q0,.38-.19.38h-.19l1.14,4.18-.38.38-3.42-9.5-3.04-9.88-3.42-9.5.76-.38,4.94,14.44h.38l-.76-2.66q-1.52-7.6-3.04-10.64a8.968,8.968,0,0,0-1.9-4.18,18.173,18.173,0,0,1-3.04-9.5v-2.66l.38,1.14a43.5,43.5,0,0,0,2.09,4.37,44.837,44.837,0,0,1,2.47,5.51l3.8,10.26q1.9,6.46,2.66,7.6l7.22,20.9,4.56,13.3.38,1.52-.38.76a4.057,4.057,0,0,1,.95,2.47,7.866,7.866,0,0,0,.57,2.47,6.983,6.983,0,0,1-3.42-4.56,22.85,22.85,0,0,1-.76-3.8Zm12.54-36.86a16.01,16.01,0,0,1,3.61,5.89q1.33,3.61,1.71,5.13l1.14,4.56,1.14,1.9q3.8,11.4,6.08,17.1l3.42,9.12.38,1.52h-.19q-.19,0-.19.38l-1.52-2.28-3.42-9.88-5.7-17.1v-.76a31.249,31.249,0,0,1-2.66-4.56l-.76-1.9.38-1.14a7.319,7.319,0,0,0-1.52-3.42q-1.14-1.14-1.9-4.56L407.17-72.2a23.562,23.562,0,0,1-1.52-5.32,1.548,1.548,0,0,1,.38,1.14q2.66,6.08,7.22,19a1.289,1.289,0,0,1,.38.95A1.289,1.289,0,0,0,414.01-55.48Zm-12.54-159.6-.76-.76.38-.38q5.32,3.8,8.36,14.44l-.38-1.14a1.548,1.548,0,0,1-.38-1.14l-1.52-1.14,3.04,7.22h-.38q-.38-.76-1.52-2.85a9,9,0,0,1-1.14-4.37q-1.52-3.42-1.9-4.56a2.622,2.622,0,0,0-.95-1.71,6.99,6.99,0,0,1-1.33-1.71l-.38.38a13.233,13.233,0,0,1-2.66-2.66ZM391.59-34.2l-.76-.76a1.548,1.548,0,0,1-.38-1.14l-5.32-15.2q-1.9-6.08-6.46-18.24v-1.52q2.66,5.7,5.13,12.73t3.23,9.69a96.952,96.952,0,0,0,4.56,14.44q6.08,16.72,8.74,25.46h-.38l-5.7-15.96-2.28-6.84A6.522,6.522,0,0,0,391.59-34.2Zm1.14-41.04a19.877,19.877,0,0,0,1.14,3.23q.76,1.71,1.52,3.99l-.76-.38L415.15-9.5h-.38l-1.52-3.04-3.8-10.26q-2.28-6.46-2.66-7.6L391.97-72.58,388.55-83.6l-3.04-9.5h.38l1.9,5.32,6.08,17.86a2.19,2.19,0,0,0,.76,1.52l-2.28-6.84Zm22.42-106.78a69.783,69.783,0,0,1,.38,8.74,75.582,75.582,0,0,1-.38,8.74q0,4.56-.76,12.92.76-19.76.76-30.4v-5.32l-.76-6.84-.38-2.28q-1.14-3.04-2.28-5.89t-1.9-5.13a17.166,17.166,0,0,0-9.5-11.02q-6.84-3.42-16.34-7.22l-1.14-.38H353.21q-.38,0-1.14-.76.76-.76,1.14-.76a122.4,122.4,0,0,1,15.96-.38h5.7a31.477,31.477,0,0,1,5.7.38,58.885,58.885,0,0,1,15.96,5.32q7.22,3.8,10.64,8.74a17.441,17.441,0,0,1,3.42,7.22l1.9,4.94q2.28,4.56,3.04,14.44A26.053,26.053,0,0,1,415.15-182.02ZM364.61-205.2a24.84,24.84,0,0,1,7.22-.38,51.916,51.916,0,0,1,8.36.57,12.284,12.284,0,0,1,6.08,2.85q4.18,3.42,5.32,10.26l1.14,14.44v12.92a31.478,31.478,0,0,1-.38,5.7,74.775,74.775,0,0,1-1.9,11.02,17.02,17.02,0,0,1-4.56,7.6q-3.42,3.42-6.84,3.8-6.08.76-14.25,1.14t-11.21.38q-1.14,0-1.14-.76v-1.14q0-3.8-.19-9.12t.19-12.16V-203.3a3.109,3.109,0,0,1,.38-1.71,3.252,3.252,0,0,1,1.9-.95,38.612,38.612,0,0,0,6.08-.38,30.094,30.094,0,0,0,4.94-.38,30.1,30.1,0,0,1,4.94-.38,17.955,17.955,0,0,1,4.37-.19,26.638,26.638,0,0,0,2.85.19l1.14.38v.76H364.61Zm53.2,58.9a37.767,37.767,0,0,1-3.8,11.02,114.23,114.23,0,0,1-7.22,11.4h-.38a71.876,71.876,0,0,1,4.18-6.84,33.315,33.315,0,0,0,5.7-16.34q.76-10.64,1.52-31.16a78.629,78.629,0,0,0-1.9-20.14,10.734,10.734,0,0,0-1.14-3.23,13.922,13.922,0,0,1-1.14-2.47l-2.66-6.46a20.672,20.672,0,0,0-11.78-12.16L385.51-228a26.664,26.664,0,0,0-8.93-1.71q-5.13-.19-7.41-.19-7.6,0-11.4.38a6.666,6.666,0,0,1-1.9-.76,22.638,22.638,0,0,0,4.94-.38v-.38l-8.36-.38v-.38h27.74l4.56-.38a7.119,7.119,0,0,1,3.8.76q6.08,2.28,9.12,3.8,8.36,4.18,10.64,6.84,5.7,6.46,6.84,9.5,5.32,14.44,5.7,22.42.38,4.94.38,15.2,0,7.22-.38,11.02a71.221,71.221,0,0,0-.38,8.36q-.38,6.84-4.18,19.76l2.28-11.4Zm-13.68-51.3a6.751,6.751,0,0,1,.57,1.9,3.4,3.4,0,0,0,.95,1.9v.76l.76,6.08q.76,8.36.76,12.16l-.38,8.36q0,7.6-.38,11.4a32.881,32.881,0,0,1-3.04,14.82q-5.32,12.16-15.96,14.82-6.84,2.28-10.26,3.04a31.478,31.478,0,0,1-5.7.38l-4.56.38-3.42-.38v-.38q8.36-.76,12.92-1.52a17.517,17.517,0,0,0,6.08-1.52,44.18,44.18,0,0,0,7.98-3.04q5.7-3.04,7.6-6.46l.38-.76a2.98,2.98,0,0,1,2.28-3.04v-1.9l3.42-12.92q1.14-5.32,1.14-15.96v-7.98q0-4.18-.76-11.78a25.2,25.2,0,0,0-1.52-5.13q-1.14-2.85-1.52-3.99a6.764,6.764,0,0,1,.76-4.56Zm-66.5,59.28a2.578,2.578,0,0,0-.76,1.9q-1.52-2.66-1.52-51.68v-15.58h2.66v33.82l.76,33.44-.76.38ZM415.15-22.04q-2.28-6.84-3.8-10.26a14.85,14.85,0,0,0-1.14-3.04,14.85,14.85,0,0,1-1.14-3.04l-6.46-19.38q-5.32-13.68-7.6-20.52-1.14-3.04-2.09-6.46t-2.09-6.84q-.76-1.9-1.52-3.42a20.848,20.848,0,0,1-1.14-2.66l-.76-1.9q0-.38.19-.38h.19l1.14,1.14q.76,1.52,1.71,3.8a44.974,44.974,0,0,1,1.71,4.94q1.9,7.6,7.98,22.04.76,2.28,1.52,3.99a19.874,19.874,0,0,1,1.14,3.23q8.36,25.08,12.92,37.62l3.8,9.5,2.28,6.84-.38.38-1.14-.76Zm-68.4-22.04q0-7.6-.38-11.02a89.98,89.98,0,0,1,.38-13.68l.38-9.88q0-11.02.38-16.34v-1.52l.38-.38.38,1.9v58.9q-.38,7.22-.38,21.28a15.881,15.881,0,0,0-.76,2.66h-.38Zm57.76-95a22.112,22.112,0,0,1,.95-3.42q.57-1.52.95-2.66l1.14-16.72,1.14-17.48v-.19q0-.19.38-.19v4.18h.76v-9.5h.38q.38,0,.38.76a48.729,48.729,0,0,1,.38,7.22,6.193,6.193,0,0,1-1.52,4.56,7.905,7.905,0,0,0-.38,3.04h.38a1.289,1.289,0,0,0,.38-.95,1.289,1.289,0,0,1,.38-.95h.76a65.515,65.515,0,0,0-.38,8.36,103.543,103.543,0,0,1-.57,11.97,34.932,34.932,0,0,1-2.47,9.31h-.38l.76-5.7h-.38l-2.28,8.36ZM344.09-13.3q0-27.74.76-84.74h.38l.38,1.52v9.12l.38,9.88-.38,9.5-1.14,22.8.38,7.22v22.42l-.38,2.28Zm54.34-67.26q11.02,31.16,24.7,68.78l-.76.38a2.578,2.578,0,0,1-.76-1.9l-3.8-10.26a69.016,69.016,0,0,0-2.66-7.6l-5.7-16.34a2.906,2.906,0,0,1-.57-1.52,2.906,2.906,0,0,0-.57-1.52,2.564,2.564,0,0,1-1.14-1.71,8.558,8.558,0,0,1-.38-1.71q-1.14-2.66-7.22-19l-2.28-7.6ZM336.11-36.1a45.2,45.2,0,0,1-.38,6.84q-.76-19.76-.76-29.64,0-9.12.38-13.68h.76V-39.9h.38V-50.92h.76l.38,36.48h-.76l-.38-10.64V-36.1Zm8.74-99.94-.38-1.52-.38-38.38v-26.98l.38-1.14h.76v68.02Zm57.38-33.82a14.969,14.969,0,0,0,.19-4.18q-.19-2.28-.19-3.42l-.76-12.92a28.306,28.306,0,0,0-2.66-8.36l-1.14-4.18h.76l1.52,3.42q3.42,6.08,3.42,17.1v5.7a248.4,248.4,0,0,1-1.14,28.12,7.743,7.743,0,0,1-.57,2.66,7.281,7.281,0,0,0-.57,2.28ZM426.17-9.12q-1.14-.76-14.63-37.81T398.05-85.88h.38l5.7,15.96Q421.23-22.04,426.17-9.12ZM382.09-215.46q-1.52,0-1.52-1.14l-.76-.38a102.943,102.943,0,0,0-10.64-.76,41.821,41.821,0,0,0-6.46.38,6.6,6.6,0,0,1-2.66.19,13.845,13.845,0,0,0-2.28-.19l-1.9.38-2.66.38q-.38,0-.38-.76l2.28-.38a83.078,83.078,0,0,1,13.68-1.14,57.454,57.454,0,0,1,7.6.38,41.2,41.2,0,0,1,17.86,5.32l2.28,1.9-12.16-4.56Zm15.2,10.26a18.075,18.075,0,0,0-7.41-4.18q-4.75-1.52-6.65-2.28a25.934,25.934,0,0,0-10.07-1.9H352.83l.38-.38q3.04-.38,7.03-.76t9.31-.38a80.638,80.638,0,0,1,9.12.76,41.737,41.737,0,0,1,15.96,5.7A5.582,5.582,0,0,1,397.29-205.2ZM409.45-10.64q-6.84-16.34-14.06-38.38-6.84-19.76-10.64-29.64,7.22,16.72,15.58,42.56ZM334.97-140.98q-1.14-11.78-1.14-35.34l-.76-26.6h.76Zm63.08-33.44q0-12.54-1.14-18.62a84.389,84.389,0,0,1,2.28,19.76q0,6.08-.38,10.45t-.76,7.41Zm-38-45.98h-6.84l-.76-.38.76-.76,11.02-.38q4.56,0,12.92.76h1.52v.76H360.05Zm34.2,31.54q.76,8.36.76,12.54l-.38,17.1h-.38Zm-47.5,8.36v-5.32l-.76-16.34.38-2.28h.76v23.94Zm5.32-41.8q1.52-1.52,10.26-1.52,6.08,0,9.88.38Zm28.12,102.22q3.42-1.14,5.89-2.09t4.75-1.71a21.869,21.869,0,0,0,9.88-7.22q.38,0,1.14-.76a21.979,21.979,0,0,1-8.74,7.98A43.231,43.231,0,0,1,380.19-120.08Zm4.18-94.62q.38,0,.38-.19v-.19a52.5,52.5,0,0,1,12.92,5.7q-.38,0-.38.76Zm-28.88-4.94,22.04-.38v.76H355.49ZM338.01-98.04h.38v22.42Zm-15.2-87.02v-17.1h.38v17.1Zm90.82,14.82-1.14,20.52h-.38l.76-20.52Zm-60.8-67.64h17.1v.38h-17.1Zm59.28,60.42v12.16h-.38v-12.16Zm12.92,18.62q0,3.42-.76,11.02h-.38v-5.7a32.02,32.02,0,0,0,.76-5.32ZM417.05-10.26q-3.8-9.12-5.32-13.68h.38q1.52,3.8,2.85,7.03t2.47,6.27h-.19Q417.05-10.64,417.05-10.26Zm-1.9-125.02q0,3.04-3.04,6.84h-.76l3.8-7.6Zm-31.16-83.6q.76-.76,1.14-.76,1.9,0,5.7,2.66ZM346.75-167.2v-8.74h.38v8.74Zm0,12.54-.38-7.22h.76v7.22Zm79.04-33.44v10.26h-.76l.38-10.26ZM338.39-69.54v15.58h-.38V-69.54Zm58.52,60.8-3.42-9.12a.336.336,0,0,1,.38-.38l3.42,9.5ZM353.59-109.06h8.74v.38h-8.74Zm-15.2,85.12V-11.4h-.38V-23.94Zm-3.04-72.58.76,7.98h-.76l-.38-7.98Zm45.22-135.66a34.437,34.437,0,0,0-6.08-.38v-.38h6.08Zm44.84,56.62v11.02h-.38v-11.02ZM413.63-16.72l2.66,6.46a.336.336,0,0,1-.38.38l-2.66-6.84Zm-12.54-79.8a45.138,45.138,0,0,0-3.04-5.7l.76-.38,2.66,5.7Zm10.26-93.1-1.14-6.08h.38l1.14,6.08Zm-74.1,96.9v5.32h-.38v-5.32ZM323.19-180.5v0ZM407.55-38.38l1.9,6.08-.38.38L406.79-38Zm-5.32,18.62-.76,1.14.76,1.9,3.04,2.66-.38-1.52Zm15.2-181.26a13.967,13.967,0,0,1-1.14-3.23q-.38-1.71-.76-3.23-3.04-9.5-8.36-12.54l-11.02-6.08a87.541,87.541,0,0,1-7.98-4.18,4.23,4.23,0,0,0-1.9-.38l-8.74-.76h-1.14a64.807,64.807,0,0,0,8.74,1.52q1.52.38,2.66.76l2.28.76,2.28,1.14q2.66,1.52,5.7,3.04t6.46,3.42a21.364,21.364,0,0,1,9.5,12.54,71.568,71.568,0,0,0,3.04,7.6Zm2.28,15.96a13.334,13.334,0,0,0,.38-3.8q0-6.84-1.9-8.74Zm-.76,31.92a81.64,81.64,0,0,1,.76-9.5h-.76l-.76,9.5Zm-6.46-57.76a16.66,16.66,0,0,1-1.9-3.42h-.38q.38,1.14.76,2.09t.76,1.71Zm-76,47.12h.38v-8.74h-.38Zm71.82,14.06a72.851,72.851,0,0,1,.57-7.98,41.247,41.247,0,0,0,.19-8.74Q408.31-155.04,408.31-149.72ZM486.21.76q0-1.14.95-.76a4.356,4.356,0,0,0,1.33.38L491.53,0a10.118,10.118,0,0,1,4.56,1.14l1.52-.38,1.14-.38a15.709,15.709,0,0,0,2.09-.19,9.758,9.758,0,0,1,3.23.19q8.36,0,12.54-1.14a31.417,31.417,0,0,0,4.18-.38q2.66-.38,4.56-.76a2.527,2.527,0,0,0,1.52-.57,2.307,2.307,0,0,1,1.14-.57,5.292,5.292,0,0,0,2.28.38,20.787,20.787,0,0,0,4.56-.76,61.033,61.033,0,0,0,15.58-4.94,75.528,75.528,0,0,0,12.16-8.36q6.08-6.84,6.84-8.36a40.56,40.56,0,0,0,4.56-8.74l4.94-11.02a36.526,36.526,0,0,0,1.9-10.07q.38-5.89.76-8.55l.76-7.22.76-12.16q.38-3.04.76-7.03t.38-9.31q-.76-12.92-.76-19l.38-13.68q0-3.04.19-7.6a103.85,103.85,0,0,0-.19-10.64q0-5.32-.38-9.12t-.76-6.46q-.38-3.42-.95-11.97t-1.71-15.39q-2.28-11.4-5.32-15.96-6.08-10.64-8.36-13.3-10.64-13.3-22.04-17.1a63.189,63.189,0,0,0-12.16-2.66q-15.58-1.52-24.32-1.9-8.74,0-13.3.38l-16.34.38a13.333,13.333,0,0,1-3.8.38,23.554,23.554,0,0,0-4.56,1.52l.38,1.52h-2.66a22.331,22.331,0,0,0-.76,5.32l.38,8.74q0,1.9-.19,5.13a25.126,25.126,0,0,0,.19,5.51l.38,20.52v21.28l.38,16.34-.38,9.88q.38,5.32.38,16.34.38,6.84.38,20.52v6.08l-.38,5.32v20.14l.38,16.72v17.48a15.877,15.877,0,0,1-1.14,6.84,2.2,2.2,0,0,0,.38,1.52l.38,2.66v7.6l-.38,19.38a5.833,5.833,0,0,0,.76,2.28l2.28,2.28.38-.19a1.686,1.686,0,0,1,.76-.19V.38a17.211,17.211,0,0,1,6.08-1.14A41.9,41.9,0,0,1,486.21.76Zm49.02-18.62a44.367,44.367,0,0,1-13.3,3.61q-7.6.95-9.88,1.33l-5.7.38-1.52-.76,1.52-.76,17.1-2.28,4.94-1.14q4.56-1.52,7.22-.38-1.14-1.14,0-1.52l4.18-1.52q8.74-3.42,11.78-6.46A86.46,86.46,0,0,0,559.93-38q7.98-12.54,9.12-33.06l2.28-26.6a50.22,50.22,0,0,0,.19-7.41q-.19-3.23-.19-5.51v-9.88q0-3.42.19-8.55t-.19-11.97q0-5.7-.38-9.69t-.76-7.03v-5.7l.76,1.52,1.14,20.52q.38,12.54.38,37.62-.76,30.78-4.56,48.64a69.929,69.929,0,0,1-7.98,20.9A34.934,34.934,0,0,1,535.23-17.86Zm-3.8-11.78a3.462,3.462,0,0,1-2.66.38l8.74-3.8q8.74-3.8,12.54-10.64a43.241,43.241,0,0,0,6.08-18.24q2.28-15.2,2.66-23.18.76-6.84.95-11.97t.19-8.55l-.38-14.82.38-9.12-.76-19.38q-.76-12.92-1.52-20.14l-.76-10.26v-4.94a6.161,6.161,0,0,1,2.66,3.8l1.14,18.24.76,32.3a31.255,31.255,0,0,0,.38,4.75,31.248,31.248,0,0,1,.38,4.75q0,5.32-.76,15.96l-.38,7.98a27.69,27.69,0,0,0,.38,4.56,25.588,25.588,0,0,1,.38,4.18l-.38,7.6L559.17-68.4a20.255,20.255,0,0,1-.38,4.56,5.292,5.292,0,0,1-.38,2.28,44.194,44.194,0,0,0-1.9,7.22A46.708,46.708,0,0,1,548.53-38l-.76,1.14L547.01-38l-3.42,3.42a1.289,1.289,0,0,1,.95-.38,1.289,1.289,0,0,0,.95-.38.336.336,0,0,1,.38.38l-5.32,3.42v-.38l3.04-2.66ZM545.87-169.1q.76,7.22,1.52,21.66.38,6.46.38,19.38.38,7.22.19,12.54t-.19,8.74l.38,11.02a28.679,28.679,0,0,1-.38,5.32,20.952,20.952,0,0,1-.76,4.18l-.38,4.94-1.14,8.36a62.839,62.839,0,0,1-.76,8.36,48.445,48.445,0,0,1-1.52,6.84l-3.8,8.36a4.674,4.674,0,0,1-1.52,2.09,10.625,10.625,0,0,1-1.9,1.33,24.183,24.183,0,0,1-6.08,2.66,23.556,23.556,0,0,1-4.56,1.52l-11.02,2.28a33.812,33.812,0,0,1-6.46.76h-1.14q-1.52,0-1.9-.76a6.522,6.522,0,0,1-.38-2.66l.76-5.32V-90.06l-.38-23.18v-49.4a31.478,31.478,0,0,0-.38-5.7,80.108,80.108,0,0,1-.38-9.12l.38-18.24a57.455,57.455,0,0,1-.38-7.6q0-1.9,1.9-1.52l13.3.76a2.144,2.144,0,0,0,1.52.19,2.144,2.144,0,0,1,1.52.19,40.451,40.451,0,0,1,4.18.38,27.848,27.848,0,0,1,5.32,1.14,9.408,9.408,0,0,1,3.42,1.9q1.9,1.52,3.04,2.28,3.42,2.28,4.94,8.36L546.25-171v1.9Zm-58.9,22.04a6.246,6.246,0,0,1,.19-1.52,3.467,3.467,0,0,0-.19-1.9q-.76-15.2-.76-23.18a61.4,61.4,0,0,1-.38-7.98l.76-19.76v-1.33q0-.95,1.14-.95a2.385,2.385,0,0,1,.57.95,4.21,4.21,0,0,1,.19,1.33,31.479,31.479,0,0,0-.38,5.7l.38,11.78-.38,19.38.38,21.66v33.82h.76v-34.58l-.38-44.08V-201.4a.774.774,0,0,0-.19-.57q-.19-.19.19-.57a2.19,2.19,0,0,1,.76-1.52,2.19,2.19,0,0,1,.76,1.52v24.7l.38,41.04.76,71.06q0,8.74-.76,25.46a1.548,1.548,0,0,1-.38,1.14h-.38l-.38-1.9.38-22.8v-19a34.437,34.437,0,0,0-.38-6.08v21.66h-.76a4.23,4.23,0,0,0-.38-1.9h-.38l-.76,29.26-.76.38V-41.8l.38-12.54q.38-4.18.38-12.54l-.38-27.36V-127.3h.38l-1.14-22.42h.76ZM543.59-15.2a14.892,14.892,0,0,1-3.42,1.52v.76a4.23,4.23,0,0,1,1.9-.38q6.08-2.28,16.72-9.88a30.788,30.788,0,0,0,10.26-13.3l6.08-17.1a6,6,0,0,0,.95-2.09,8.005,8.005,0,0,0,.19-1.33h.76l-1.9,9.12-2.66,7.6v2.09a4.739,4.739,0,0,1-.38,2.09,83.893,83.893,0,0,1-5.32,9.5l-5.7,6.84a8.932,8.932,0,0,1-2.28,1.71,7.232,7.232,0,0,0-1.9,1.33,11.167,11.167,0,0,0-3.04,2.66,5.779,5.779,0,0,1-3.04,1.52,26.292,26.292,0,0,0-3.04.76,12.934,12.934,0,0,1-3.42,1.52,11.776,11.776,0,0,0-2.28.76l-.76.38q-.76.38-1.14-.76a1.548,1.548,0,0,0-1.14.38l-1.52,1.52q-2.66.76-6.27,1.71a84.621,84.621,0,0,1-8.55,1.71q-5.7,1.14-17.86,2.66l-1.52-.38a39.225,39.225,0,0,1,5.51-1.33q3.23-.57,5.13-.95,5.32-.76,8.36-1.52v-.38a5.292,5.292,0,0,0-2.28.38,32.7,32.7,0,0,0-6.08.76h-1.14a.672.672,0,0,1-.76-.76q0-.38-.57-.38a1.289,1.289,0,0,1-.95-.38l-1.9-.38.38-.38,18.62-3.8v.38q-.76.38-4.94,2.66l.38.76,9.88-3.04a1.548,1.548,0,0,1-.38-1.14q6.08-1.9,11.02-3.8Zm-67.26-89.68h.38V-140.6h.76l.38,30.78q.38,10.26.38,30.78,0,19.38-1.14,38.76V-71.06q0-20.52-.38-30.78v30.78q0,15.2-1.14,30.78l-.38-.76a104.554,104.554,0,0,1-.76-11.02,45.2,45.2,0,0,1,.38-6.84,18.137,18.137,0,0,1,.57-3.61,10.416,10.416,0,0,0,.19-4.37l-.38-3.42a5.292,5.292,0,0,1-.38-2.28,37.477,37.477,0,0,0,1.14-9.12l-.38-7.22-.38-31.92.38-19v-34.58h.76v69.54Zm51.68-134.9a35.89,35.89,0,0,1,21.28,4.94q13.3,7.22,22.42,25.08,3.8,7.22,6.08,19.76.76,4.94,1.14,10.83t.38,8.17l.76,17.1v1.14h-.76l-.76-4.56L577.79-171q-.76-11.4-1.52-17.1a60.472,60.472,0,0,0-1.9-9.88,81.525,81.525,0,0,0-2.66-9.88,31.137,31.137,0,0,0-4.94-7.98q-4.56-6.08-9.88-12.16-.38-.76-3.42-2.66a46.818,46.818,0,0,0-18.24-7.6Zm21.66,81.32q.76,7.6,1.52,22.04v25.84l-.76,3.04-.76-.38-.38-14.06q0-9.12-.76-28.12-.76-13.68-1.52-21.28l-1.52-20.9v-.19q0-.19.38-.19l1.52,6.08ZM539.41-39.14q6.46-4.18,9.5-15.58,2.66-7.98,4.18-24.32l1.14-18.62a52.416,52.416,0,0,0,.38-7.6q0-22.04-.38-33.06,0-5.32-.38-12.16t-.76-10.26l-2.28-23.56a5.292,5.292,0,0,1,.38-2.28l.38,1.14,2.28,25.84q.38,3.04.76,7.6t.38,11.02q.38,7.98.38,24.32v8.36L553.47-76a154.791,154.791,0,0,1-3.42,20.9,27.447,27.447,0,0,1-7.22,13.68,11.166,11.166,0,0,1-3.04,2.66ZM479.75-182.78q1.14,52.82,1.14,106.02-.38-1.52-.95-30.59t-.57-54.91Q479.37-182.4,479.75-182.78Zm27.36,146.3a57.18,57.18,0,0,0,15.58-2.66q2.28-.76,4.75-1.71t5.89-2.09a12.45,12.45,0,0,0,7.98-7.22l1.52-2.66q1.14.38,1.52-.38a2.916,2.916,0,0,0,.38-1.14,1.289,1.289,0,0,0,.38-.95,1.289,1.289,0,0,1,.38-.95l.76-1.52q0,.38.19.38h.19l-1.14,3.04-3.42,7.6a10.462,10.462,0,0,1-7.6,5.7q-1.14.38-2.47.95t-2.47.95q-7.6,2.28-22.8,3.8h-1.14l-.38-.76Zm40.66-40.66q.76-9.5,1.52-26.98v-.76a.336.336,0,0,1,.38.38l1.14,15.2v.76a.672.672,0,0,1-.76.76.336.336,0,0,0-.38.38,1.1,1.1,0,0,1-.38.76q0,3.42-.76,11.02l.38,3.42a20.789,20.789,0,0,1-.76,4.56,89.076,89.076,0,0,0-3.04,11.02l-1.14,1.9v-.38l1.52-5.7Zm-64.98-79.42q-1.14-1.9-1.14-26.22,0-19.38,1.14-21.66l.76,1.52-.76,22.04.38,13.3v9.88A1.548,1.548,0,0,1,482.79-156.56ZM550.43-190a21.062,21.062,0,0,1-1.9-4.94,37.9,37.9,0,0,0-7.22-12.54q-3.42-4.18-9.88-5.32l-11.4-1.9a80.858,80.858,0,0,0-13.3-1.14h-1.9v-.76h1.9l14.06,1.14,9.88,1.52a17.966,17.966,0,0,1,12.16,7.22,38.274,38.274,0,0,1,7.6,16.34q.38,0,.38.19T550.43-190Zm26.6,21.66a6.743,6.743,0,0,1,.19,2.85q-.19,1.71-.19,2.47,0,6.46.76,19.38a.336.336,0,0,1-.38.38q-.76-2.66-1.33-19.95t-.19-20.71ZM495.71-56.62a18.036,18.036,0,0,1,.38,4.18,61.4,61.4,0,0,1,.38,7.98v1.52a11.528,11.528,0,0,1-.38,3.42q0,.76-1.14.76l-.38-9.12.38-8.74Zm49.02,7.98q2.66-6.84,5.7-22.8Q550.81-60.42,544.73-48.64Zm-62.32-96.9a40.511,40.511,0,0,1,.76-9.12,80.108,80.108,0,0,1,.38,9.12,84.794,84.794,0,0,1-.38,9.5h-.76Zm-5.7-30.02q0-7.98.38-11.78,0-11.78.38-17.86v29.64ZM488.87-39.14q-.76-1.52-.76-8.74a99.8,99.8,0,0,1,.57-10.64,65.947,65.947,0,0,1,.95-6.84Zm-5.32-56.24v-21.28h.38l.38,21.28Zm-3.8,49.02q.76-17.48.76-26.6h.76l-.76,26.6Zm42.56,19.38a32.225,32.225,0,0,1-8.36,2.09q-6.08.95-8.36.57v-.76Q509.01-25.46,522.31-26.98Zm55.48-67.26q-.38,7.98-1.9,23.94h-.38l1.9-23.94ZM492.67-47.12q1.14.76,1.52,3.42a8.836,8.836,0,0,1-.38,4.56q-1.9,0-1.52-1.52A41.821,41.821,0,0,1,492.67-47.12ZM479.75-187.34v-17.48h.76l-.38,17.48Zm98.42,51.3v25.08h-.38v-25.08Zm-25.08,34.2a18.034,18.034,0,0,0-.38,4.18v4.56a20.259,20.259,0,0,1-.38,4.56h-.76V-95a45.726,45.726,0,0,0,.76-6.84Zm-75.24-47.12a20.256,20.256,0,0,1-.38,4.56h-.76v-13.3h.76Zm97.66,81.7q-.76,6.08-3.04,18.24h-.38l3.04-18.24ZM474.81-207.48a2.037,2.037,0,0,1,1.52,2.28l-1.14,7.22-.38,1.14h-.38ZM559.17-27.36q-3.8,6.46-9.88,8.36a29.4,29.4,0,0,0,5.32-3.8Zm-6.84-84.36v-12.92h.38v12.92Zm-1.14-44.46h.19q.19,0,.19-.38a20.665,20.665,0,0,1,.76,5.7v3.8h-.76Zm6.46,10.26-.76-15.2h.38l.76,15.2Zm25.08,7.98v13.68h-.38v-13.68Zm-30.02-2.28v12.92h-.38v-12.92ZM483.55-47.88v7.22h-.38v-7.22Zm17.86-5.32v12.92h-.38V-53.2Zm-17.48-4.56v7.22h-.38v-7.22Zm47.88,22.42L521.17-32.3h-.19q-.19,0-.19-.38l11.02-3.04Zm44.08-95.76v0Zm5.32,20.14v0Zm-104.12-51.3v0Zm92.72-3.04-.38-6.46h.38l.76,6.46ZM494.19-53.96a22.639,22.639,0,0,0,.38,4.94h-.76a22.639,22.639,0,0,1-.38-4.94Zm3.04,12.92h1.33q.95,0,.95,1.52a.672.672,0,0,1-.76.76Q497.23-38.76,497.23-41.04Zm76,.76a72.723,72.723,0,0,0,2.66-7.22h.38l-2.28,7.22Zm1.9-117.8.38,7.6h-.38l-.38-7.6Zm-73.72,23.56v-9.12h.38v9.12Zm60.42-71.44-2.66-4.94.38-.38,2.66,5.32ZM517.75-31.54v.19q0,.19.38.19l-7.22.76ZM480.51-42.56a11.528,11.528,0,0,1-.38,3.42h-.76a11.528,11.528,0,0,0,.38-3.42Zm73.34-155.42a.336.336,0,0,0,.38-.38l1.9,5.7q0,.38-.19.38h-.19Zm-77.9,12.54v7.22h-.38v-7.22Zm104.88,38a45.2,45.2,0,0,0,.38,6.84h-.38l-.76-6.84ZM579.69-85.5a13.332,13.332,0,0,0-.38,3.8h-.38v-3.8ZM472.15-231.04l1.52-1.52h.38l-.38,2.66Zm14.82,64.22v0Zm1.14,92.34h.38V-88.92h-.38Zm1.52-32.3h-.38v11.02h.38Zm-2.28-54.72q-.38,0-.38-.19v8.93h.38ZM712.31-21.66l4.94-9.5a14.708,14.708,0,0,1-1.52,4.18,25.071,25.071,0,0,0,2.28-4.18q4.94-15.58,4.94-26.22V-69.92q0-11.02-1.14-16.34-.38-1.9-1.33-7.41a46.8,46.8,0,0,0-2.85-10.07l-3.42-7.6-.38.38q6.46,12.92,6.08,23.56a26.456,26.456,0,0,0-1.52-6.46l-2.09-6.27q-1.33-3.99-2.47-6.65A79.125,79.125,0,0,0,692.93-133a109.731,109.731,0,0,0-21.28-13.68q-10.64-5.32-14.82-9.5a1.548,1.548,0,0,0-1.14-.38,11.167,11.167,0,0,0,3.04,2.66l6.08,4.94a7.987,7.987,0,0,1,4.18,2.66,4.167,4.167,0,0,1-4.18-2.66q-5.7-2.66-14.06-11.78l-.38.38,5.7,6.46-1.52-1.14q-6.46-6.46-8.36-13.3-3.42-11.02-3.42-17.86a34.434,34.434,0,0,1,.38-6.08l.38-2.28h.38a22.637,22.637,0,0,1-.38,4.94q.38-1.52.76-2.85t.76-2.85q1.9-4.94,4.56-10.26a8.733,8.733,0,0,1,3.04-3.04q7.6-4.18,13.3-4.18a67.029,67.029,0,0,1,7.98.38l-1.14,1.14a9.774,9.774,0,0,1,8.36,4.18,5.071,5.071,0,0,0,.95,1.33l.95.95q3.04,3.8,3.04,4.56a77.7,77.7,0,0,1,2.66,12.92l1.9,15.2a4.209,4.209,0,0,1-.19,1.33,1.731,1.731,0,0,0,.19,1.33v3.04a13.048,13.048,0,0,0,2.47-.76,2.557,2.557,0,0,1,3.23.76,2.557,2.557,0,0,0,2.28,1.14q1.14-.38,2.66,1.14,0,.38.76.38a4.23,4.23,0,0,1-.38-1.9q3.42,1.52,4.18,1.9h8.74l3.42-1.14,1.52-1.52a2.2,2.2,0,0,0,.38-1.52l-.38-1.52h1.9l1.9-3.04v-1.14l-.38-5.32-1.14-13.3q-.38-2.66-.76-6.84a38.155,38.155,0,0,0-1.14-6.84,91,91,0,0,0-7.98-19,27.883,27.883,0,0,0-3.8-4.94,57.987,57.987,0,0,0-12.54-8.74q-8.36-4.56-13.3-5.32a94.893,94.893,0,0,0-14.82-1.14,48.561,48.561,0,0,0-9.88.76,39.683,39.683,0,0,0-10.64,3.42q-5.7,2.66-7.98,3.8a45.416,45.416,0,0,0-14.82,11.78q-4.56,6.08-7.22,10.26a29,29,0,0,0-3.8,9.12q-1.14,3.42-2.66,10.26a45.523,45.523,0,0,0-1.52,11.78,50.654,50.654,0,0,0,1.14,10.64q4.56,24.32,17.1,38.76l6.84,7.22a16.815,16.815,0,0,0,6.84,5.32,71.877,71.877,0,0,1,6.84,4.18l12.16,7.98q6.46,3.8,7.98,4.94a80.882,80.882,0,0,1,11.4,13.68q.38.76,1.14,2.09t1.52,2.85l3.04,9.12a20.788,20.788,0,0,1,.76,4.56q.76,8.36.76,12.16,0,11.78-2.28,17.1-3.04,7.6-10.26,7.98l-8.74.38a26.668,26.668,0,0,1-13.3-3.42q-.38-.38-1.71-1.52a5.388,5.388,0,0,1-1.71-2.28,66.947,66.947,0,0,1-1.52-9.5,22.636,22.636,0,0,1-.38-4.94q-.38-2.66-.76-7.03t-.38-10.45a8.206,8.206,0,0,1,0-4.94l1.9-5.7q-.38-.38-7.6-6.46a3.006,3.006,0,0,0-1.9-.38,23.046,23.046,0,0,0-6.46,1.9l-2.28,1.14v-2.28a5.292,5.292,0,0,1-2.28.38,5.292,5.292,0,0,0-2.28.38q0,.38-1.14-.76-.38-1.52-2.66-1.52a4.23,4.23,0,0,1-1.9-.38l-1.9-.38a3.206,3.206,0,0,0-2.66,1.9q-3.8,7.22-4.18,8.74a4.514,4.514,0,0,0-.76,3.42v1.52l-.38,6.08q0,2.28-.19,5.51a56.142,56.142,0,0,0,.19,7.79,55.825,55.825,0,0,0,1.9,13.3q.76,3.8,4.18,17.48a8.249,8.249,0,0,0,1.52,3.04l7.6,10.64q5.7,7.22,10.26,9.5,1.52.76,5.51,2.66a35.192,35.192,0,0,0,7.41,2.66,37.578,37.578,0,0,0,12.54,2.28,57.018,57.018,0,0,0,7.03-.57q4.37-.57,7.03-.95,12.16-.76,19.76-4.56A59.525,59.525,0,0,0,713.07-17.1q4.56-5.7,7.98-15.58a97.885,97.885,0,0,0,4.94-31.16q0-4.18-.76-13.3a1.687,1.687,0,0,0-.19-.76l-.19-.38-.76,19.38q-.76,17.86-6.08,30.02l-1.9,3.8h-.76l-3.04,3.8Zm-52.82-7.98h-1.14a11.834,11.834,0,0,1-4.94-1.52h-.76a5.514,5.514,0,0,1-4.56-2.66l5.32,2.66,6.08,1.14ZM635.55-171a37.167,37.167,0,0,1-2.66-12.54,22.683,22.683,0,0,1,1.14-7.22v6.84a78.38,78.38,0,0,0,2.66,15.2,5.833,5.833,0,0,1,.76,2.28l1.14,2.28q2.66,9.88,11.78,17.86l1.52,1.14q-.38,0-.38.19v.19q-9.5-6.84-12.54-15.96a34.747,34.747,0,0,1-1.52-5.7Zm9.12,131.86a10.592,10.592,0,0,1-1.71-3.61,17.893,17.893,0,0,0-.95-2.85.336.336,0,0,0,.38-.38l1.14,2.66h.38a13.315,13.315,0,0,1-.76-4.18,13.315,13.315,0,0,1-.76-4.18l-.38-6.08a9.884,9.884,0,0,1,.38-3.04l.76-2.28a17.866,17.866,0,0,1,1.9,8.74v2.28a45.879,45.879,0,0,0,1.14,9.5q1.52,6.84,8.74,7.98a51.919,51.919,0,0,0,13.3,1.52,48.729,48.729,0,0,0,7.22-.38q6.08-.76,8.36-4.18a29.969,29.969,0,0,0,3.42-8.74,132.571,132.571,0,0,0,3.04-23.18,11.527,11.527,0,0,1,.38-3.42V-57a34.441,34.441,0,0,0,.38-6.08l.38-9.88a65.855,65.855,0,0,0-1.14-12.16q-2.28-10.26-11.4-20.52a44.551,44.551,0,0,0-9.31-8.36,106.756,106.756,0,0,0-13.11-7.22q-.76-.38-5.32-3.04l.38-.38a23.022,23.022,0,0,1,4.94,2.66,57.377,57.377,0,0,0,6.65,3.99,95.192,95.192,0,0,1,8.55,5.13q16.72,11.78,19.38,29.64a85.392,85.392,0,0,1,1.14,14.06,96.194,96.194,0,0,1-.38,9.88q-.38,1.9-.95,5.51a53.414,53.414,0,0,1-1.33,6.27,35.661,35.661,0,0,1-2.66,7.98q-1.9,6.08-9.5,7.22a37.478,37.478,0,0,1-9.12,1.14,80.636,80.636,0,0,1-9.12-.76,27.987,27.987,0,0,1-7.98-1.9,11.3,11.3,0,0,1-3.04-1.71,26.717,26.717,0,0,0-2.28-1.71l1.14,2.28a2.448,2.448,0,0,1-1.52-1.14A12.632,12.632,0,0,1,644.67-39.14Zm1.9-166.06a6.683,6.683,0,0,1,2.85-3.61q2.09-1.33,2.85-1.71l-5.7,5.32-1.9,2.28a12.575,12.575,0,0,0-3.42,6.84q-.38,1.14-1.14,4.37a25.909,25.909,0,0,0-.76,5.89v1.9a31.651,31.651,0,0,0,1.14,8.36l2.28,9.5a16.889,16.889,0,0,0,2.28,5.32l4.18,4.18.76.76q3.04,5.32,12.16,10.26,9.88,4.94,11.78,6.08a88.017,88.017,0,0,1,20.9,15.58,175.365,175.365,0,0,1,11.78,15.2l2.28,4.56q3.04,7.22,4.56,22.42a101.3,101.3,0,0,1,.38,10.26q0,5.7-.76,16.34a63.657,63.657,0,0,1-6.08,24.32q-.38,1.52-4.18,6.08a40.033,40.033,0,0,1-20.14,13.68q-3.8.76-12.92,1.52l-11.78.76a18.789,18.789,0,0,1-6.27-1.14q-3.23-1.14-4.37-1.52-.76-.38-4.75-2.09a16.551,16.551,0,0,1-6.65-5.13l-3.04-3.42q-3.8-5.7-4.18-6.46-.38-1.14-1.52-3.61a20.1,20.1,0,0,1-1.52-4.37q-1.52-6.46-3.8-20.14a15.986,15.986,0,0,0-.38-3.8h.76l.38,1.14,1.9,14.44,1.9,9.5a28.775,28.775,0,0,0,3.42,6.84q1.9,3.04,6.46,9.12a19.826,19.826,0,0,0,6.84,4.94l7.6,3.04a32.742,32.742,0,0,0,7.22,1.52,21.358,21.358,0,0,0,4.94-.76q3.42-.38,7.03-.57t7.03-.57q9.12-.38,18.24-7.6a86.84,86.84,0,0,0,8.36-7.6,17.571,17.571,0,0,0,2.66-5.13,45.081,45.081,0,0,1,1.9-4.75,72.789,72.789,0,0,0,4.18-20.9l.38-19.38q-.76-17.86-4.94-26.98a22.233,22.233,0,0,0-2.85-5.32q-2.09-3.04-3.23-4.94-3.8-5.7-13.68-14.82a103.4,103.4,0,0,0-9.5-6.08l-23.18-13.3a23.432,23.432,0,0,1-6.46-5.51q-3.04-3.61-5.7-7.41-.38-1.14-.76-2.47t-.76-2.47a44.194,44.194,0,0,0-1.9-7.22q-.38-1.14-1.14-4.37a15.914,15.914,0,0,1-.38-5.89,106.315,106.315,0,0,1,3.04-14.44Q642.01-201.4,646.57-205.2ZM693.31-31.16a1.289,1.289,0,0,0-.38.95,1.289,1.289,0,0,1-.38.95l-6.84,4.94a17.564,17.564,0,0,1-7.03,2.85q-3.61.57-10.83.95l-8.74.38a4.23,4.23,0,0,1-1.9-.38v-.38l15.96-1.52h-4.18v-.38a17.612,17.612,0,0,0,3.42-.38,7.767,7.767,0,0,1,3.42,0h1.9a12.814,12.814,0,0,0,5.7-1.52,39.525,39.525,0,0,1,4.18-1.9l5.7-4.56q0-.38-1.52,0l3.04-2.66a10.816,10.816,0,0,0,1.9-2.28l2.66-6.84q.38-1.14,1.14-3.8a12.65,12.65,0,0,0,.38-5.32,2.341,2.341,0,0,1,.38-1.33,3.109,3.109,0,0,0,.38-1.71q.76-9.88.76-14.82-.38-7.22-1.9-21.66a44.129,44.129,0,0,0-7.22-15.96,98.983,98.983,0,0,0-12.54-13.68,101.263,101.263,0,0,0-15.96-10.26q-1.9-1.14-8.74-4.56a50.572,50.572,0,0,1-11.78-7.98q-7.6-6.84-9.5-12.16-2.66-8.36-6.08-20.9a32.7,32.7,0,0,1-.76-6.08,42.081,42.081,0,0,1,1.9-11.78l1.52-5.32q1.52-5.7,7.22-11.4a23.122,23.122,0,0,0,2.66-3.42l1.14-1.14q1.52-1.14,4.56-3.61a15.83,15.83,0,0,1,6.08-3.23,10.735,10.735,0,0,0,3.23-1.14,13.922,13.922,0,0,1,2.47-1.14q0,.38.19.38h.19l-2.28,1.14a49.689,49.689,0,0,1-5.32,3.04q-3.04,1.52-6.08,3.42-8.74,6.46-11.4,14.06a46.025,46.025,0,0,0-4.18,18.62,46.523,46.523,0,0,0,.76,7.22l2.66,7.98a71.866,71.866,0,0,1,2.66,7.98,24.558,24.558,0,0,0,6.84,12.54,87.582,87.582,0,0,0,8.74,7.22l1.52,1.14a16.506,16.506,0,0,0,4.75,3.23q2.85,1.33,3.61,1.71l7.98,4.94,3.42,1.71a39.508,39.508,0,0,1,4.18,2.47,16.038,16.038,0,0,1,4.18,3.04,84.561,84.561,0,0,1,10.64,10.26,14.465,14.465,0,0,1,2.66,3.8q1.14,1.9,2.66,4.37a50.265,50.265,0,0,1,3.04,5.89,62.007,62.007,0,0,1,4.18,28.5l-1.9,20.52a31.135,31.135,0,0,1-1.52,5.89q-1.14,3.23-1.52,4.37l-2.66,6.46a3.663,3.663,0,0,1-1.52,1.9A1.893,1.893,0,0,1,693.31-31.16ZM648.09-212.04a32.639,32.639,0,0,0-11.02,20.14,61.7,61.7,0,0,0-.76,7.6,38.6,38.6,0,0,0,3.42,15.2l1.9,5.7q2.28,7.6,11.78,15.96,4.56,3.8,17.86,10.26a69.46,69.46,0,0,1,18.24,12.92,77.987,77.987,0,0,1,14.06,17.1,37.1,37.1,0,0,1,3.04,8.74,20.789,20.789,0,0,1,.76,4.56,14.708,14.708,0,0,0-1.52-4.18,36.672,36.672,0,0,0-5.7-11.59,132.19,132.19,0,0,0-9.88-11.59,57.611,57.611,0,0,0-11.4-9.31q-6.84-4.37-13.3-7.79-9.88-5.32-14.06-9.12-8.74-6.46-11.02-14.82a82.568,82.568,0,0,0-2.85-8.55,53.561,53.561,0,0,1-2.85-10.07,11.945,11.945,0,0,0-.19-1.9,6.6,6.6,0,0,1,.19-2.66,128.365,128.365,0,0,1,2.28-13.68,15.334,15.334,0,0,1,2.66-6.08,59.041,59.041,0,0,1,4.18-5.7q4.18-4.94,7.6-5.7h1.14Zm-22.42,61.56q2.66,6.84,11.02,15.96h-.19q-.19,0-.19.38l-3.8-4.18q-12.54-14.06-16.72-34.58a48.6,48.6,0,0,1-1.52-12.54,56.323,56.323,0,0,1,4.56-22.42l.38-1.14,1.14-1.52a15.883,15.883,0,0,0-.76,2.66l-.76,3.04q1.14-2.28,2.85-5.13t3.61-5.89h.38l-1.14,2.28a40.479,40.479,0,0,0-6.84,18.62q-.38,1.52-.76,3.8a32.733,32.733,0,0,0-.38,5.32,55.129,55.129,0,0,0,3.42,20.14q6.08,16.72,14.44,26.6a145.425,145.425,0,0,0,13.3,12.16q.38,0,1.14.76v.38Q633.65-136.04,625.67-150.48Zm88.16,115.9a3.1,3.1,0,0,1,.76,2.28,6.745,6.745,0,0,1-.76,3.04l-.76,1.9q-.76,3.42-2.66,4.18a1.7,1.7,0,0,0-.95,1.14,2.409,2.409,0,0,1-.57,1.14q-6.46,7.98-12.16,11.02-10.26,6.46-25.08,7.22H654.93q-2.66,0-7.22-2.28l1.52-.38a16.26,16.26,0,0,1,1.71.19,1.925,1.925,0,0,1,1.71,1.33q0,.38,1.14.38l14.06-.76,3.42-.38a12.437,12.437,0,0,1,3.04-.76q15.58,0,28.5-12.16a20.282,20.282,0,0,1,2.47-2.85,30.676,30.676,0,0,1,3.23-2.85,7.684,7.684,0,0,0,2.85-2.85,12.1,12.1,0,0,1,1.33-2.09l.38-1.14-.38-1.52a6.251,6.251,0,0,1,.38-1.9A14.744,14.744,0,0,1,713.83-34.58Zm-5.7-57a20.789,20.789,0,0,1,.76,4.56,12.5,12.5,0,0,1,.76,3.8q.76,9.12.76,13.3a61.4,61.4,0,0,1-.38,7.98l-.38,7.98q0,7.6-4.94,19.76a16.31,16.31,0,0,1-3.04,5.32l-3.61,3.61a35.4,35.4,0,0,1-3.61,3.23,87.212,87.212,0,0,1-10.83,5.89,25.664,25.664,0,0,1-10.45,2.09,81.644,81.644,0,0,0-9.5.76h-.38l-4.18-1.14q10.64-.76,15.96-.76,9.5-.38,17.86-7.22a63.919,63.919,0,0,0,7.22-6.46,7.993,7.993,0,0,0,2.28-3.42q.76-1.9,2.28-6.27a70.924,70.924,0,0,0,2.28-7.79q.38-1.52.76-3.99a27.484,27.484,0,0,0,.38-3.99,132.154,132.154,0,0,0,1.14-17.1,116.042,116.042,0,0,0-1.52-19.76v-.38ZM637.07-231.8q12.92-10.64,31.92-10.64a60.3,60.3,0,0,1,21.47,3.8q10.07,3.8,15.77,10.26l-3.04-2.66q-7.98-6.46-21.28-9.12a130.065,130.065,0,0,0-19.38-.76,35.031,35.031,0,0,0-12.92,3.42l-11.78,5.7ZM717.25-39.52a3.126,3.126,0,0,0-.19-.95,1.731,1.731,0,0,1,.19-1.33l1.52-11.02,1.14-23.56v-8.74q1.14,2.66,1.14,12.54t-.95,20.14q-.95,10.26-2.47,12.92Zm-19-41.8q.38,4.18.38,12.16,0,19-5.7,31.92h-.38a2.2,2.2,0,0,1,.38-1.52l2.66-7.98a42.015,42.015,0,0,0,1.52-9.5l.76-24.32V-81.7A.336.336,0,0,1,698.25-81.32Zm-43.7-72.58A53.755,53.755,0,0,0,665-146.68q6.27,3.42,8.93,4.94,5.32,3.42,9.31,6.08t7.03,4.56q.38,0,.38.76-.76,0-.76-.38a154.2,154.2,0,0,0-15.39-9.69q-8.55-4.75-11.21-6.27a110.274,110.274,0,0,1-9.5-6.84l-.38-.76ZM640.49-57a45.61,45.61,0,0,1-.76,6.46q-.38-3.04-1.14-7.6a29.4,29.4,0,0,1-.38-7.98h.76a4.23,4.23,0,0,0,.38,1.9l.76-.76a45.354,45.354,0,0,1,1.52,13.3h-.38A32.023,32.023,0,0,0,640.49-57Zm70.68-165.3a59.21,59.21,0,0,1,8.74,31.92Q718.77-204.82,711.17-222.3ZM691.41-35.72q-.76,3.8-7.98,7.03a36.809,36.809,0,0,1-15.2,3.23,20.256,20.256,0,0,1-4.56-.38,4.23,4.23,0,0,1,1.9-.38,45.193,45.193,0,0,1,6.84-.38q9.12-.76,14.82-5.7ZM637.07-213.56a31.436,31.436,0,0,1-3.61,4.94,16.21,16.21,0,0,0-3.61,7.22l-3.42,13.3q-1.52-3.42,2.28-12.54T637.07-213.56Zm75.24,112.48q-6.46-14.06-21.28-28.5,4.18,1.52,12.92,13.11T712.31-101.08Zm-15.58-83.98a44.971,44.971,0,0,0-1.9-14.82l-2.28-5.32a9.731,9.731,0,0,0-4.18-5.7q3.42,1.9,4.18,3.42l3.8,11.02a27.623,27.623,0,0,1,1.14,7.98v7.98h-.76Zm.38-25.46q5.7,14.06,5.7,23.18a38.61,38.61,0,0,1-.38,6.08l-.38-1.9q1.14-12.54-4.94-25.84a1.548,1.548,0,0,0-.38-1.14Zm-43.7-7.22q4.56-2.66,12.54-2.66l7.98.38q-3.42.38-9.69.76A60.194,60.194,0,0,0,653.41-217.74Zm46.36,30.4q0-12.54-8.36-26.6a10.814,10.814,0,0,1,1.9,2.28,54.342,54.342,0,0,1,6.84,20.14v3.8ZM641.63-82.84a7.734,7.734,0,0,1,2.28,5.7,15.942,15.942,0,0,1-1.52,6.46v-1.9a11.527,11.527,0,0,1,.38-3.42q0-3.04-1.52-4.18a3.214,3.214,0,0,1-1.33-1.52l-.95-1.9Zm-22.8,38.76a65.684,65.684,0,0,1-3.42-20.9Zm79.42-46.74q2.28,6.08,2.28,17.86ZM637.07-224.2q1.14-1.9,5.89-4.94t7.41-3.42Zm19,92.72q-4.18-2.28-8.36-4.94a26.705,26.705,0,0,1-6.84-6.08Zm-3.42,9.12q-7.98-3.42-12.16-8.36ZM655.69-20.9q-4.56,0-10.26-4.18v-.38Zm50.92,7.22a35.853,35.853,0,0,1-13.68,9.5Zm5.32-92.34-9.5-14.44h.19q.19,0,.19-.38l9.5,14.44Zm-72.2,30.4a3.908,3.908,0,0,1-2.28-3.42,6.525,6.525,0,0,0-1.14-3.42q.76,0,.76-.38l3.42,4.56-1.52.76A2.578,2.578,0,0,1,639.73-75.62Zm23.18-52.82a27.293,27.293,0,0,1,8.17,4.37q4.37,3.23,6.65,4.75l-.38.38Zm-37.24-46.74q2.66,9.12,4.94,15.2l-.76.38q-2.66-9.12-4.94-15.2Zm60.04-58.52q6.46,1.52,14.82,7.22Q697.87-227.62,685.71-233.7Zm18.24,112.48a88.886,88.886,0,0,1,7.6,12.16l-7.98-11.78Zm-65.74-93.86q1.52-3.04,6.84-7.6l.38.76ZM702.05-18.24a81.612,81.612,0,0,0,7.6-8.74Q705.85-20.14,702.05-18.24ZM616.55-70.3a8.364,8.364,0,0,1-1.9,4.56,3.723,3.723,0,0,1,.76-3.42,3.006,3.006,0,0,0,.38-1.9l-.38-1.9h.76ZM661.77,1.52a18.036,18.036,0,0,1-4.18.38,11.775,11.775,0,0,1-4.94-.76ZM619.21-41.8a83.343,83.343,0,0,1,1.52,9.12h-.38a64.809,64.809,0,0,1-1.52-8.74h.19Q619.21-41.42,619.21-41.8ZM682.67-7.22a18.922,18.922,0,0,1-10.26,1.14Zm13.3-92.34q0,.38-.19.38h-.19l-4.56-7.6h.38Zm-33.06-14.06-3.42-1.71a39.5,39.5,0,0,1-4.18-2.47v-.38l7.98,4.18q-.38,0-.38.19Zm6.08-7.22h.19q.19,0,.19-.38l7.98,5.7-.38.38ZM654.55-26.22q-4.56-.76-6.46-3.42Zm60.42-12.16-3.04,6.84q0-.38-.19-.38h-.19l2.66-6.84ZM624.91-220.4q-.38.38,4.18-5.32h.19q.19,0,.19.38l-4.18,5.32h-.19Q624.91-220.02,624.91-220.4Zm87.78,28.12a80.1,80.1,0,0,0,.38,9.12.336.336,0,0,0-.38.38ZM704.71-29.64l-3.8,4.56h-.19q-.19,0-.19-.38l3.8-4.56Zm-72.58,15.2a44.423,44.423,0,0,1-3.8-4.56l.38-.38,3.8,4.56Zm1.14,1.52a13.342,13.342,0,0,1,3.04,1.9q-.38,0-.38.19v.19q-1.14,0-3.04-1.9Zm4.94-216.6v.19q0,.19.38.19l-5.7,4.18v-.19q0-.19-.38-.19ZM694.45-69.54v-7.6h.38v7.6Zm-25.08-40.28a11.166,11.166,0,0,1,3.04,2.66v.38a23.121,23.121,0,0,1-3.42-2.66A.336.336,0,0,0,669.37-109.82Zm-50.92-58.9a59.423,59.423,0,0,1-1.9-8.36q-.38,0-.38.19v.19q.38,1.9,1.9,8.36Z" transform="translate(719.91 246.24)" fill="#fff"/>
  </g>
</svg>
