<?xml version="1.0" encoding="UTF-8"?>
<svg width="23px" height="16px" viewBox="0 0 23 16" version="1.1" xmlns="http://www.w3.org/2000/svg" xmlns:xlink="http://www.w3.org/1999/xlink">
    <!-- Generator: Sketch 57.1 (83088) - https://sketch.com -->
    <title>discord-logo-8232</title>
    <desc>Created with Sketch.</desc>
    <g id="Page-1" stroke="none" stroke-width="1" fill="none" fill-rule="evenodd">
        <g id="discord-logo-8232" fill="#FFFFFF" fill-rule="nonzero">
            <path d="M8.09431458,0.0306678225 L8.28406274,0.25842448 C4.86859586,1.24501531 3.29383554,2.74407557 3.29383554,2.74407557 C3.29383554,2.74407557 3.71118188,2.51647739 4.41339948,2.19375611 C6.44360519,1.30203936 8.05646455,1.05526715 8.72058311,0.998243093 C8.8343822,0.97931808 8.92925628,0.960393067 9.04305538,0.960393067 C10.2004694,0.808494933 11.5097815,0.770644907 12.8758686,0.92254304 C14.6784761,1.13121621 16.6138078,1.66261067 18.5872384,2.74407557 C18.5872384,2.74407557 17.0881782,1.32096437 13.8627084,0.334373547 L14.1284057,0.0306678225 L14.2164314,0.0314070842 C14.6920031,0.0429890151 17.023253,0.195356806 19.4602792,2.02318197 C19.4602792,2.02318197 22.1927025,6.97555915 22.1927025,13.0853503 C22.1922044,13.0853503 20.5793451,15.8364496 16.3859606,15.9694227 C16.3859606,15.9694227 15.702917,15.153406 15.1336725,14.4325124 C17.6193236,13.7305438 18.5680644,12.1744595 18.5680644,12.1744595 C17.7901467,12.6866799 17.0500791,13.0472513 16.3859606,13.2940235 C15.4372198,13.6924448 14.526578,13.958142 13.6346122,14.1100402 C11.8130797,14.4516865 10.1431963,14.3568124 8.7203341,14.0911151 C7.63886919,13.882442 6.7090534,13.5788947 5.93113575,13.2750985 C5.49461538,13.1042753 5.02024498,12.8956021 4.54587458,12.6299049 C4.48885052,12.5920549 4.43207548,12.5728809 4.37505143,12.5350308 C4.3372014,12.5161058 4.31802738,12.4971808 4.29910236,12.4780068 C3.95745607,12.2882586 3.76770791,12.1555345 3.76770791,12.1555345 C3.76770791,12.1555345 4.67859868,13.6735198 7.08830071,14.3944134 C6.51905623,15.115556 5.81708764,15.9691737 5.81708764,15.9691737 C1.62395212,15.8364496 0.0300177778,13.0853503 0.0300177778,13.0853503 C0.0300177778,6.97555915 2.76244108,2.02318197 2.76244108,2.02318197 C5.49486439,-0.0259487467 8.09431458,0.0306678225 8.09431458,0.0306678225 Z M7.56292012,7.10828325 C6.48145522,7.10828325 5.6275885,8.05702405 5.6275885,9.21443803 C5.6275885,10.371852 6.50038023,11.3205928 7.56292012,11.3205928 C8.64438503,11.3205928 9.49825175,10.371852 9.49825175,9.21443803 C9.51717676,8.05702405 8.64438503,7.10828325 7.56292012,7.10828325 Z M14.488479,7.10828325 C13.407014,7.10828325 12.5531473,8.05702405 12.5531473,9.21443803 C12.5531473,10.371852 13.4259391,11.3205928 14.488479,11.3205928 C15.5699439,11.3205928 16.4238106,10.371852 16.4238106,9.21443803 C16.4238106,8.05702405 15.5701929,7.10828325 14.488479,7.10828325 Z" id="Combined-Shape"></path>
        </g>
    </g>
</svg>