<?xml version="1.0" encoding="UTF-8"?>
<svg width="179px" height="15px" viewBox="0 0 179 15" version="1.1" xmlns="http://www.w3.org/2000/svg" xmlns:xlink="http://www.w3.org/1999/xlink">
    <!-- Generator: Sketch 57.1 (83088) - https://sketch.com -->
    <title>t</title>
    <desc>Created with Sketch.</desc>
    <g id="t" stroke="none" stroke-width="1" fill="none" fill-rule="evenodd">
        <path d="M4.51,3.236 L0.604,3.236 L0.604,1.256 L10.684,1.256 L10.684,3.236 L6.778,3.236 L6.778,14 L4.51,14 L4.51,3.236 Z M13.36,1.256 L15.628,1.256 L15.628,6.404 L21.586,6.404 L21.586,1.256 L23.854,1.256 L23.854,14 L21.586,14 L21.586,8.348 L15.628,8.348 L15.628,14 L13.36,14 L13.36,1.256 Z M27.862,1.256 L36.304,1.256 L36.304,3.236 L30.13,3.236 L30.13,6.476 L35.98,6.476 L35.98,8.384 L30.13,8.384 L30.13,11.984 L36.628,11.984 L36.628,14 L27.862,14 L27.862,1.256 Z M45.742,1.256 L50.71,1.256 C51.1900024,1.256 51.6639977,1.31299943 52.132,1.427 C52.6000023,1.54100057 53.0169982,1.72699871 53.383,1.985 C53.7490018,2.24300129 54.0459989,2.57599796 54.274,2.984 C54.5020011,3.39200204 54.616,3.88399712 54.616,4.46 C54.616,5.1800036 54.412002,5.77399766 54.004,6.242 C53.595998,6.71000234 53.0620033,7.04599898 52.402,7.25 L52.402,7.286 C53.206004,7.39400054 53.8659974,7.70599742 54.382,8.222 C54.8980026,8.73800258 55.156,9.42799568 55.156,10.292 C55.156,10.9880035 55.0180014,11.5729976 54.742,12.047 C54.4659986,12.5210024 54.1030023,12.9019986 53.653,13.19 C53.2029978,13.4780014 52.6870029,13.6849994 52.105,13.811 C51.5229971,13.9370006 50.932003,14 50.332,14 L45.742,14 L45.742,1.256 Z M48.01,6.44 L50.026,6.44 C50.7820038,6.44 51.357998,6.2900015 51.754,5.99 C52.150002,5.6899985 52.348,5.26400276 52.348,4.712 C52.348,4.13599712 52.144002,3.7280012 51.736,3.488 C51.327998,3.2479988 50.6920043,3.128 49.828,3.128 L48.01,3.128 L48.01,6.44 Z M48.01,12.092 L50.044,12.092 C50.3320014,12.092 50.6439983,12.0710002 50.98,12.029 C51.3160017,11.9869998 51.6249986,11.9000007 51.907,11.768 C52.1890014,11.6359993 52.4229991,11.4440013 52.609,11.192 C52.7950009,10.9399987 52.888,10.6040021 52.888,10.184 C52.888,9.51199664 52.6600023,9.04400132 52.204,8.78 C51.7479977,8.51599868 51.0580046,8.384 50.134,8.384 L48.01,8.384 L48.01,12.092 Z M57.976,7.592 C57.976,6.5719949 58.1469983,5.65100411 58.489,4.829 C58.8310017,4.00699589 59.304997,3.30800288 59.911,2.732 C60.517003,2.15599712 61.2369958,1.71200156 62.071,1.4 C62.9050042,1.08799844 63.8139951,0.932 64.798,0.932 C65.794005,0.932 66.7119958,1.08799844 67.552,1.4 C68.3920042,1.71200156 69.1179969,2.15599712 69.73,2.732 C70.3420031,3.30800288 70.8189983,4.00699589 71.161,4.829 C71.5030017,5.65100411 71.674,6.5719949 71.674,7.592 C71.674,8.58800498 71.5030017,9.49699589 71.161,10.319 C70.8189983,11.1410041 70.3420031,11.848997 69.73,12.443 C69.1179969,13.037003 68.3920042,13.4989984 67.552,13.829 C66.7119958,14.1590017 65.794005,14.324 64.798,14.324 C63.8139951,14.324 62.9050042,14.1590017 62.071,13.829 C61.2369958,13.4989984 60.517003,13.037003 59.911,12.443 C59.304997,11.848997 58.8310017,11.1410041 58.489,10.319 C58.1469983,9.49699589 57.976,8.58800498 57.976,7.592 Z M60.442,7.592 C60.442,8.27600342 60.546999,8.90299715 60.757,9.473 C60.9670011,10.0430028 61.2669981,10.5379979 61.657,10.958 C62.047002,11.3780021 62.5089973,11.7049988 63.043,11.939 C63.5770027,12.1730012 64.1679968,12.29 64.816,12.29 C65.4640032,12.29 66.0579973,12.1730012 66.598,11.939 C67.1380027,11.7049988 67.6029981,11.3780021 67.993,10.958 C68.383002,10.5379979 68.682999,10.0430028 68.893,9.473 C69.1030011,8.90299715 69.208,8.27600342 69.208,7.592 C69.208,6.9319967 69.1030011,6.32000282 68.893,5.756 C68.682999,5.19199718 68.3860019,4.7000021 68.002,4.28 C67.6179981,3.8599979 67.1560027,3.5300012 66.616,3.29 C66.0759973,3.0499988 65.4760033,2.93 64.816,2.93 C64.1559967,2.93 63.5590027,3.0499988 63.025,3.29 C62.4909973,3.5300012 62.0320019,3.8599979 61.648,4.28 C61.2639981,4.7000021 60.9670011,5.19199718 60.757,5.756 C60.546999,6.32000282 60.442,6.9319967 60.442,7.592 Z M73.774,1.256 L76.258,1.256 L78.724,10.616 L78.76,10.616 L81.568,1.256 L83.908,1.256 L86.662,10.616 L86.698,10.616 L89.218,1.256 L91.63,1.256 L87.904,14 L85.708,14 L82.72,4.442 L82.684,4.442 L79.696,14 L77.5,14 L73.774,1.256 Z M94.342,1.256 L102.784,1.256 L102.784,3.236 L96.61,3.236 L96.61,6.476 L102.46,6.476 L102.46,8.384 L96.61,8.384 L96.61,11.984 L103.108,11.984 L103.108,14 L94.342,14 L94.342,1.256 Z M106.522,1.256 L110.95,1.256 C111.550003,1.256 112.131997,1.31899937 112.696,1.445 C113.260003,1.57100063 113.760998,1.77799856 114.199,2.066 C114.637002,2.35400144 114.987999,2.73199766 115.252,3.2 C115.516001,3.66800234 115.648,4.23799664 115.648,4.91 C115.648,5.83400462 115.387003,6.58699709 114.865,7.169 C114.342997,7.75100291 113.632005,8.14399898 112.732,8.348 L116.134,14 L113.398,14 L110.446,8.6 L108.79,8.6 L108.79,14 L106.522,14 L106.522,1.256 Z M110.644,6.746 C110.968002,6.746 111.291998,6.72200024 111.616,6.674 C111.940002,6.62599976 112.230999,6.53600066 112.489,6.404 C112.747001,6.27199934 112.959999,6.08300123 113.128,5.837 C113.296001,5.59099877 113.38,5.27600192 113.38,4.892 C113.38,4.54399826 113.302001,4.25900111 113.146,4.037 C112.989999,3.81499889 112.792001,3.63800066 112.552,3.506 C112.311999,3.37399934 112.039002,3.28400024 111.733,3.236 C111.426998,3.18799976 111.130001,3.164 110.842,3.164 L108.79,3.164 L108.79,6.746 L110.644,6.746 Z M124.744,1.256 L129.712,1.256 C130.192002,1.256 130.665998,1.31299943 131.134,1.427 C131.602002,1.54100057 132.018998,1.72699871 132.385,1.985 C132.751002,2.24300129 133.047999,2.57599796 133.276,2.984 C133.504001,3.39200204 133.618,3.88399712 133.618,4.46 C133.618,5.1800036 133.414002,5.77399766 133.006,6.242 C132.597998,6.71000234 132.064003,7.04599898 131.404,7.25 L131.404,7.286 C132.208004,7.39400054 132.867997,7.70599742 133.384,8.222 C133.900003,8.73800258 134.158,9.42799568 134.158,10.292 C134.158,10.9880035 134.020001,11.5729976 133.744,12.047 C133.467999,12.5210024 133.105002,12.9019986 132.655,13.19 C132.204998,13.4780014 131.689003,13.6849994 131.107,13.811 C130.524997,13.9370006 129.934003,14 129.334,14 L124.744,14 L124.744,1.256 Z M127.012,6.44 L129.028,6.44 C129.784004,6.44 130.359998,6.2900015 130.756,5.99 C131.152002,5.6899985 131.35,5.26400276 131.35,4.712 C131.35,4.13599712 131.146002,3.7280012 130.738,3.488 C130.329998,3.2479988 129.694004,3.128 128.83,3.128 L127.012,3.128 L127.012,6.44 Z M127.012,12.092 L129.046,12.092 C129.334001,12.092 129.645998,12.0710002 129.982,12.029 C130.318002,11.9869998 130.626999,11.9000007 130.909,11.768 C131.191001,11.6359993 131.424999,11.4440013 131.611,11.192 C131.797001,10.9399987 131.89,10.6040021 131.89,10.184 C131.89,9.51199664 131.662002,9.04400132 131.206,8.78 C130.749998,8.51599868 130.060005,8.384 129.136,8.384 L127.012,8.384 L127.012,12.092 Z M137.59,1.256 L139.858,1.256 L139.858,14 L137.59,14 L137.59,1.256 Z M143.866,1.256 L148.294,1.256 C148.894003,1.256 149.475997,1.31899937 150.04,1.445 C150.604003,1.57100063 151.104998,1.77799856 151.543,2.066 C151.981002,2.35400144 152.331999,2.73199766 152.596,3.2 C152.860001,3.66800234 152.992,4.23799664 152.992,4.91 C152.992,5.83400462 152.731003,6.58699709 152.209,7.169 C151.686997,7.75100291 150.976005,8.14399898 150.076,8.348 L153.478,14 L150.742,14 L147.79,8.6 L146.134,8.6 L146.134,14 L143.866,14 L143.866,1.256 Z M147.988,6.746 C148.312002,6.746 148.635998,6.72200024 148.96,6.674 C149.284002,6.62599976 149.574999,6.53600066 149.833,6.404 C150.091001,6.27199934 150.303999,6.08300123 150.472,5.837 C150.640001,5.59099877 150.724,5.27600192 150.724,4.892 C150.724,4.54399826 150.646001,4.25900111 150.49,4.037 C150.333999,3.81499889 150.136001,3.63800066 149.896,3.506 C149.655999,3.37399934 149.383002,3.28400024 149.077,3.236 C148.770998,3.18799976 148.474001,3.164 148.186,3.164 L146.134,3.164 L146.134,6.746 L147.988,6.746 Z M156.388,1.256 L160.906,1.256 C161.734004,1.256 162.567996,1.36399892 163.408,1.58 C164.248004,1.79600108 165.003997,2.15299751 165.676,2.651 C166.348003,3.14900249 166.893998,3.80299595 167.314,4.613 C167.734002,5.42300405 167.944,6.427994 167.944,7.628 C167.944,8.74400558 167.734002,9.70399598 167.314,10.508 C166.893998,11.312004 166.348003,11.9719974 165.676,12.488 C165.003997,13.0040026 164.248004,13.3849988 163.408,13.631 C162.567996,13.8770012 161.734004,14 160.906,14 L156.388,14 L156.388,1.256 Z M160.546,12.02 C161.134003,12.02 161.721997,11.9510007 162.31,11.813 C162.898003,11.6749993 163.428998,11.4410017 163.903,11.111 C164.377002,10.7809984 164.763999,10.3340028 165.064,9.77 C165.364002,9.20599718 165.514,8.49200432 165.514,7.628 C165.514,6.71599544 165.364002,5.97200288 165.064,5.396 C164.763999,4.81999712 164.377002,4.37000162 163.903,4.046 C163.428998,3.72199838 162.898003,3.5000006 162.31,3.38 C161.721997,3.2599994 161.134003,3.2 160.546,3.2 L158.656,3.2 L158.656,12.02 L160.546,12.02 Z M177.838,3.92 C177.597999,3.60799844 177.259002,3.34700105 176.821,3.137 C176.382998,2.92699895 175.942002,2.822 175.498,2.822 C175.233999,2.822 174.970001,2.85499967 174.706,2.921 C174.441999,2.98700033 174.202001,3.08899931 173.986,3.227 C173.769999,3.36500069 173.593001,3.54499889 173.455,3.767 C173.316999,3.98900111 173.248,4.25599844 173.248,4.568 C173.248,4.85600144 173.307999,5.10199898 173.428,5.306 C173.548001,5.51000102 173.712999,5.68399928 173.923,5.828 C174.133001,5.97200072 174.387999,6.09799946 174.688,6.206 C174.988002,6.31400054 175.317998,6.42199946 175.678,6.53 C176.086002,6.66200066 176.508998,6.81199916 176.947,6.98 C177.385002,7.14800084 177.786998,7.36999862 178.153,7.646 C178.519002,7.92200138 178.818999,8.2699979 179.053,8.69 C179.287001,9.1100021 179.404,9.63199688 179.404,10.256 C179.404,10.9400034 179.278001,11.5369975 179.026,12.047 C178.773999,12.5570025 178.438002,12.9799983 178.018,13.316 C177.597998,13.6520017 177.106003,13.9039992 176.542,14.072 C175.977997,14.2400008 175.384003,14.324 174.76,14.324 C173.931996,14.324 173.122004,14.1710015 172.33,13.865 C171.537996,13.5589985 170.890003,13.106003 170.386,12.506 L172.006,10.994 C172.318002,11.4260022 172.734997,11.7679987 173.257,12.02 C173.779003,12.2720013 174.291997,12.398 174.796,12.398 C175.060001,12.398 175.329999,12.3650003 175.606,12.299 C175.882001,12.2329997 176.130999,12.1220008 176.353,11.966 C176.575001,11.8099992 176.754999,11.6150012 176.893,11.381 C177.031001,11.1469988 177.1,10.8560017 177.1,10.508 C177.1,10.1719983 177.022001,9.89300111 176.866,9.671 C176.709999,9.44899889 176.500001,9.25700081 176.236,9.095 C175.971999,8.93299919 175.660002,8.7920006 175.3,8.672 L174.166,8.294 C173.781998,8.1739994 173.398002,8.03000084 173.014,7.862 C172.629998,7.69399916 172.285002,7.47200138 171.979,7.196 C171.672998,6.91999862 171.424001,6.58100201 171.232,6.179 C171.039999,5.77699799 170.944,5.276003 170.944,4.676 C170.944,4.02799676 171.078999,3.47000234 171.349,3.002 C171.619001,2.53399766 171.972998,2.14700153 172.411,1.841 C172.849002,1.53499847 173.346997,1.30700075 173.905,1.157 C174.463003,1.00699925 175.029997,0.932 175.606,0.932 C176.254003,0.932 176.910997,1.04599886 177.577,1.274 C178.243003,1.50200114 178.821998,1.84399772 179.314,2.3 L177.838,3.92 Z" id="THEBOWERBIRDS" fill="#FFFFFF" fill-rule="nonzero"></path>
    </g>
</svg>