<?xml version="1.0" encoding="UTF-8"?>
<svg width="40px" height="28px" viewBox="0 0 40 28" version="1.1" xmlns="http://www.w3.org/2000/svg" xmlns:xlink="http://www.w3.org/1999/xlink">
    <!-- Generator: Sketch 57.1 (83088) - https://sketch.com -->
    <title>menu-icon</title>
    <desc>Created with Sketch.</desc>
    <g id="Page-1" stroke="none" stroke-width="1" fill="none" fill-rule="evenodd">
        <g id="menu-icon" transform="translate(-1.000000, 0.000000)" fill="#FFFFFF" fill-rule="nonzero">
            <path d="M3,2.72080535e-16 C2.27872817,-0.0102005791 1.60783727,0.368750592 1.24422456,0.991745699 C0.880611843,1.61474081 0.880611843,2.38525919 1.24422456,3.0082543 C1.60783727,3.63124941 2.27872817,4.01020058 3,4 L39,4 C39.7212718,4.01020058 40.3921627,3.63124941 40.7557754,3.0082543 C41.1193882,2.38525919 41.1193882,1.61474081 40.7557754,0.991745699 C40.3921627,0.368750592 39.7212718,-0.0102005791 39,2.72080535e-16 L3,2.72080535e-16 Z M3,12 C2.27872817,11.9897994 1.60783727,12.3687506 1.24422456,12.9917457 C0.880611843,13.6147408 0.880611843,14.3852592 1.24422456,15.0082543 C1.60783727,15.6312494 2.27872817,16.0102006 3,16 L39,16 C39.7212718,16.0102006 40.3921627,15.6312494 40.7557754,15.0082543 C41.1193882,14.3852592 41.1193882,13.6147408 40.7557754,12.9917457 C40.3921627,12.3687506 39.7212718,11.9897994 39,12 L3,12 Z M3,24 C2.27872817,23.9897994 1.60783727,24.3687506 1.24422456,24.9917457 C0.880611843,25.6147408 0.880611843,26.3852592 1.24422456,27.0082543 C1.60783727,27.6312494 2.27872817,28.0102006 3,28 L39,28 C39.7212718,28.0102006 40.3921627,27.6312494 40.7557754,27.0082543 C41.1193882,26.3852592 41.1193882,25.6147408 40.7557754,24.9917457 C40.3921627,24.3687506 39.7212718,23.9897994 39,24 L3,24 Z" id="Shape"></path>
        </g>
    </g>
</svg>